G04 #@! TF.GenerationSoftware,KiCad,Pcbnew,7.0.9-7.0.9~ubuntu22.04.1*
G04 #@! TF.CreationDate,2023-12-23T17:14:06+01:00*
G04 #@! TF.ProjectId,pico-swm-px26a-pcb,7069636f-2d73-4776-9d2d-70783236612d,rev?*
G04 #@! TF.SameCoordinates,Original*
G04 #@! TF.FileFunction,Legend,Top*
G04 #@! TF.FilePolarity,Positive*
%FSLAX46Y46*%
G04 Gerber Fmt 4.6, Leading zero omitted, Abs format (unit mm)*
G04 Created by KiCad (PCBNEW 7.0.9-7.0.9~ubuntu22.04.1) date 2023-12-23 17:14:06*
%MOMM*%
%LPD*%
G01*
G04 APERTURE LIST*
%ADD10C,0.150000*%
%ADD11C,0.120000*%
G04 APERTURE END LIST*
D10*
X165846009Y-99690475D02*
X165846009Y-99357142D01*
X166369819Y-99214285D02*
X166369819Y-99690475D01*
X166369819Y-99690475D02*
X165369819Y-99690475D01*
X165369819Y-99690475D02*
X165369819Y-99214285D01*
X165369819Y-98880951D02*
X166369819Y-98214285D01*
X165369819Y-98214285D02*
X166369819Y-98880951D01*
X165988866Y-97833332D02*
X165988866Y-97071428D01*
X165465057Y-96642856D02*
X165417438Y-96595237D01*
X165417438Y-96595237D02*
X165369819Y-96499999D01*
X165369819Y-96499999D02*
X165369819Y-96261904D01*
X165369819Y-96261904D02*
X165417438Y-96166666D01*
X165417438Y-96166666D02*
X165465057Y-96119047D01*
X165465057Y-96119047D02*
X165560295Y-96071428D01*
X165560295Y-96071428D02*
X165655533Y-96071428D01*
X165655533Y-96071428D02*
X165798390Y-96119047D01*
X165798390Y-96119047D02*
X166369819Y-96690475D01*
X166369819Y-96690475D02*
X166369819Y-96071428D01*
X165369819Y-95214285D02*
X165369819Y-95404761D01*
X165369819Y-95404761D02*
X165417438Y-95499999D01*
X165417438Y-95499999D02*
X165465057Y-95547618D01*
X165465057Y-95547618D02*
X165607914Y-95642856D01*
X165607914Y-95642856D02*
X165798390Y-95690475D01*
X165798390Y-95690475D02*
X166179342Y-95690475D01*
X166179342Y-95690475D02*
X166274580Y-95642856D01*
X166274580Y-95642856D02*
X166322200Y-95595237D01*
X166322200Y-95595237D02*
X166369819Y-95499999D01*
X166369819Y-95499999D02*
X166369819Y-95309523D01*
X166369819Y-95309523D02*
X166322200Y-95214285D01*
X166322200Y-95214285D02*
X166274580Y-95166666D01*
X166274580Y-95166666D02*
X166179342Y-95119047D01*
X166179342Y-95119047D02*
X165941247Y-95119047D01*
X165941247Y-95119047D02*
X165846009Y-95166666D01*
X165846009Y-95166666D02*
X165798390Y-95214285D01*
X165798390Y-95214285D02*
X165750771Y-95309523D01*
X165750771Y-95309523D02*
X165750771Y-95499999D01*
X165750771Y-95499999D02*
X165798390Y-95595237D01*
X165798390Y-95595237D02*
X165846009Y-95642856D01*
X165846009Y-95642856D02*
X165941247Y-95690475D01*
X166084104Y-94738094D02*
X166084104Y-94261904D01*
X166369819Y-94833332D02*
X165369819Y-94499999D01*
X165369819Y-94499999D02*
X166369819Y-94166666D01*
X118976191Y-71119819D02*
X119309524Y-72119819D01*
X119309524Y-72119819D02*
X119642857Y-71119819D01*
X120500000Y-72119819D02*
X119928572Y-72119819D01*
X120214286Y-72119819D02*
X120214286Y-71119819D01*
X120214286Y-71119819D02*
X120119048Y-71262676D01*
X120119048Y-71262676D02*
X120023810Y-71357914D01*
X120023810Y-71357914D02*
X119928572Y-71405533D01*
X120928572Y-72024580D02*
X120976191Y-72072200D01*
X120976191Y-72072200D02*
X120928572Y-72119819D01*
X120928572Y-72119819D02*
X120880953Y-72072200D01*
X120880953Y-72072200D02*
X120928572Y-72024580D01*
X120928572Y-72024580D02*
X120928572Y-72119819D01*
X121595238Y-71119819D02*
X121690476Y-71119819D01*
X121690476Y-71119819D02*
X121785714Y-71167438D01*
X121785714Y-71167438D02*
X121833333Y-71215057D01*
X121833333Y-71215057D02*
X121880952Y-71310295D01*
X121880952Y-71310295D02*
X121928571Y-71500771D01*
X121928571Y-71500771D02*
X121928571Y-71738866D01*
X121928571Y-71738866D02*
X121880952Y-71929342D01*
X121880952Y-71929342D02*
X121833333Y-72024580D01*
X121833333Y-72024580D02*
X121785714Y-72072200D01*
X121785714Y-72072200D02*
X121690476Y-72119819D01*
X121690476Y-72119819D02*
X121595238Y-72119819D01*
X121595238Y-72119819D02*
X121500000Y-72072200D01*
X121500000Y-72072200D02*
X121452381Y-72024580D01*
X121452381Y-72024580D02*
X121404762Y-71929342D01*
X121404762Y-71929342D02*
X121357143Y-71738866D01*
X121357143Y-71738866D02*
X121357143Y-71500771D01*
X121357143Y-71500771D02*
X121404762Y-71310295D01*
X121404762Y-71310295D02*
X121452381Y-71215057D01*
X121452381Y-71215057D02*
X121500000Y-71167438D01*
X121500000Y-71167438D02*
X121595238Y-71119819D01*
X108282268Y-121869819D02*
X108472744Y-121869819D01*
X108472744Y-121869819D02*
X108567982Y-121917438D01*
X108567982Y-121917438D02*
X108663220Y-122012676D01*
X108663220Y-122012676D02*
X108710839Y-122203152D01*
X108710839Y-122203152D02*
X108710839Y-122536485D01*
X108710839Y-122536485D02*
X108663220Y-122726961D01*
X108663220Y-122726961D02*
X108567982Y-122822200D01*
X108567982Y-122822200D02*
X108472744Y-122869819D01*
X108472744Y-122869819D02*
X108282268Y-122869819D01*
X108282268Y-122869819D02*
X108187030Y-122822200D01*
X108187030Y-122822200D02*
X108091792Y-122726961D01*
X108091792Y-122726961D02*
X108044173Y-122536485D01*
X108044173Y-122536485D02*
X108044173Y-122203152D01*
X108044173Y-122203152D02*
X108091792Y-122012676D01*
X108091792Y-122012676D02*
X108187030Y-121917438D01*
X108187030Y-121917438D02*
X108282268Y-121869819D01*
X109710839Y-122869819D02*
X109377506Y-122393628D01*
X109139411Y-122869819D02*
X109139411Y-121869819D01*
X109139411Y-121869819D02*
X109520363Y-121869819D01*
X109520363Y-121869819D02*
X109615601Y-121917438D01*
X109615601Y-121917438D02*
X109663220Y-121965057D01*
X109663220Y-121965057D02*
X109710839Y-122060295D01*
X109710839Y-122060295D02*
X109710839Y-122203152D01*
X109710839Y-122203152D02*
X109663220Y-122298390D01*
X109663220Y-122298390D02*
X109615601Y-122346009D01*
X109615601Y-122346009D02*
X109520363Y-122393628D01*
X109520363Y-122393628D02*
X109139411Y-122393628D01*
X155916666Y-103096009D02*
X156059523Y-103143628D01*
X156059523Y-103143628D02*
X156107142Y-103191247D01*
X156107142Y-103191247D02*
X156154761Y-103286485D01*
X156154761Y-103286485D02*
X156154761Y-103429342D01*
X156154761Y-103429342D02*
X156107142Y-103524580D01*
X156107142Y-103524580D02*
X156059523Y-103572200D01*
X156059523Y-103572200D02*
X155964285Y-103619819D01*
X155964285Y-103619819D02*
X155583333Y-103619819D01*
X155583333Y-103619819D02*
X155583333Y-102619819D01*
X155583333Y-102619819D02*
X155916666Y-102619819D01*
X155916666Y-102619819D02*
X156011904Y-102667438D01*
X156011904Y-102667438D02*
X156059523Y-102715057D01*
X156059523Y-102715057D02*
X156107142Y-102810295D01*
X156107142Y-102810295D02*
X156107142Y-102905533D01*
X156107142Y-102905533D02*
X156059523Y-103000771D01*
X156059523Y-103000771D02*
X156011904Y-103048390D01*
X156011904Y-103048390D02*
X155916666Y-103096009D01*
X155916666Y-103096009D02*
X155583333Y-103096009D01*
X157059523Y-103619819D02*
X156583333Y-103619819D01*
X156583333Y-103619819D02*
X156583333Y-102619819D01*
X108472744Y-119846009D02*
X108615601Y-119893628D01*
X108615601Y-119893628D02*
X108663220Y-119941247D01*
X108663220Y-119941247D02*
X108710839Y-120036485D01*
X108710839Y-120036485D02*
X108710839Y-120179342D01*
X108710839Y-120179342D02*
X108663220Y-120274580D01*
X108663220Y-120274580D02*
X108615601Y-120322200D01*
X108615601Y-120322200D02*
X108520363Y-120369819D01*
X108520363Y-120369819D02*
X108139411Y-120369819D01*
X108139411Y-120369819D02*
X108139411Y-119369819D01*
X108139411Y-119369819D02*
X108472744Y-119369819D01*
X108472744Y-119369819D02*
X108567982Y-119417438D01*
X108567982Y-119417438D02*
X108615601Y-119465057D01*
X108615601Y-119465057D02*
X108663220Y-119560295D01*
X108663220Y-119560295D02*
X108663220Y-119655533D01*
X108663220Y-119655533D02*
X108615601Y-119750771D01*
X108615601Y-119750771D02*
X108567982Y-119798390D01*
X108567982Y-119798390D02*
X108472744Y-119846009D01*
X108472744Y-119846009D02*
X108139411Y-119846009D01*
X109139411Y-120369819D02*
X109139411Y-119369819D01*
X109710839Y-120369819D02*
X109282268Y-119798390D01*
X109710839Y-119369819D02*
X109139411Y-119941247D01*
X108413220Y-117393628D02*
X108413220Y-117869819D01*
X108079887Y-116869819D02*
X108413220Y-117393628D01*
X108413220Y-117393628D02*
X108746553Y-116869819D01*
X109556077Y-117869819D02*
X109079887Y-117869819D01*
X109079887Y-117869819D02*
X109079887Y-116869819D01*
X108336779Y-115369819D02*
X108336779Y-114369819D01*
X108336779Y-114369819D02*
X108574874Y-114369819D01*
X108574874Y-114369819D02*
X108717731Y-114417438D01*
X108717731Y-114417438D02*
X108812969Y-114512676D01*
X108812969Y-114512676D02*
X108860588Y-114607914D01*
X108860588Y-114607914D02*
X108908207Y-114798390D01*
X108908207Y-114798390D02*
X108908207Y-114941247D01*
X108908207Y-114941247D02*
X108860588Y-115131723D01*
X108860588Y-115131723D02*
X108812969Y-115226961D01*
X108812969Y-115226961D02*
X108717731Y-115322200D01*
X108717731Y-115322200D02*
X108574874Y-115369819D01*
X108574874Y-115369819D02*
X108336779Y-115369819D01*
X109336779Y-114846009D02*
X109670112Y-114846009D01*
X109812969Y-115369819D02*
X109336779Y-115369819D01*
X109336779Y-115369819D02*
X109336779Y-114369819D01*
X109336779Y-114369819D02*
X109812969Y-114369819D01*
X110574874Y-114846009D02*
X110717731Y-114893628D01*
X110717731Y-114893628D02*
X110765350Y-114941247D01*
X110765350Y-114941247D02*
X110812969Y-115036485D01*
X110812969Y-115036485D02*
X110812969Y-115179342D01*
X110812969Y-115179342D02*
X110765350Y-115274580D01*
X110765350Y-115274580D02*
X110717731Y-115322200D01*
X110717731Y-115322200D02*
X110622493Y-115369819D01*
X110622493Y-115369819D02*
X110241541Y-115369819D01*
X110241541Y-115369819D02*
X110241541Y-114369819D01*
X110241541Y-114369819D02*
X110574874Y-114369819D01*
X110574874Y-114369819D02*
X110670112Y-114417438D01*
X110670112Y-114417438D02*
X110717731Y-114465057D01*
X110717731Y-114465057D02*
X110765350Y-114560295D01*
X110765350Y-114560295D02*
X110765350Y-114655533D01*
X110765350Y-114655533D02*
X110717731Y-114750771D01*
X110717731Y-114750771D02*
X110670112Y-114798390D01*
X110670112Y-114798390D02*
X110574874Y-114846009D01*
X110574874Y-114846009D02*
X110241541Y-114846009D01*
X111241541Y-114369819D02*
X111241541Y-115179342D01*
X111241541Y-115179342D02*
X111289160Y-115274580D01*
X111289160Y-115274580D02*
X111336779Y-115322200D01*
X111336779Y-115322200D02*
X111432017Y-115369819D01*
X111432017Y-115369819D02*
X111622493Y-115369819D01*
X111622493Y-115369819D02*
X111717731Y-115322200D01*
X111717731Y-115322200D02*
X111765350Y-115274580D01*
X111765350Y-115274580D02*
X111812969Y-115179342D01*
X111812969Y-115179342D02*
X111812969Y-114369819D01*
X112812969Y-114417438D02*
X112717731Y-114369819D01*
X112717731Y-114369819D02*
X112574874Y-114369819D01*
X112574874Y-114369819D02*
X112432017Y-114417438D01*
X112432017Y-114417438D02*
X112336779Y-114512676D01*
X112336779Y-114512676D02*
X112289160Y-114607914D01*
X112289160Y-114607914D02*
X112241541Y-114798390D01*
X112241541Y-114798390D02*
X112241541Y-114941247D01*
X112241541Y-114941247D02*
X112289160Y-115131723D01*
X112289160Y-115131723D02*
X112336779Y-115226961D01*
X112336779Y-115226961D02*
X112432017Y-115322200D01*
X112432017Y-115322200D02*
X112574874Y-115369819D01*
X112574874Y-115369819D02*
X112670112Y-115369819D01*
X112670112Y-115369819D02*
X112812969Y-115322200D01*
X112812969Y-115322200D02*
X112860588Y-115274580D01*
X112860588Y-115274580D02*
X112860588Y-114941247D01*
X112860588Y-114941247D02*
X112670112Y-114941247D01*
X160821428Y-103096009D02*
X160964285Y-103143628D01*
X160964285Y-103143628D02*
X161011904Y-103191247D01*
X161011904Y-103191247D02*
X161059523Y-103286485D01*
X161059523Y-103286485D02*
X161059523Y-103429342D01*
X161059523Y-103429342D02*
X161011904Y-103524580D01*
X161011904Y-103524580D02*
X160964285Y-103572200D01*
X160964285Y-103572200D02*
X160869047Y-103619819D01*
X160869047Y-103619819D02*
X160488095Y-103619819D01*
X160488095Y-103619819D02*
X160488095Y-102619819D01*
X160488095Y-102619819D02*
X160821428Y-102619819D01*
X160821428Y-102619819D02*
X160916666Y-102667438D01*
X160916666Y-102667438D02*
X160964285Y-102715057D01*
X160964285Y-102715057D02*
X161011904Y-102810295D01*
X161011904Y-102810295D02*
X161011904Y-102905533D01*
X161011904Y-102905533D02*
X160964285Y-103000771D01*
X160964285Y-103000771D02*
X160916666Y-103048390D01*
X160916666Y-103048390D02*
X160821428Y-103096009D01*
X160821428Y-103096009D02*
X160488095Y-103096009D01*
X161488095Y-103619819D02*
X161488095Y-102619819D01*
X162059523Y-103619819D02*
X161630952Y-103048390D01*
X162059523Y-102619819D02*
X161488095Y-103191247D01*
X150571428Y-103096009D02*
X150714285Y-103143628D01*
X150714285Y-103143628D02*
X150761904Y-103191247D01*
X150761904Y-103191247D02*
X150809523Y-103286485D01*
X150809523Y-103286485D02*
X150809523Y-103429342D01*
X150809523Y-103429342D02*
X150761904Y-103524580D01*
X150761904Y-103524580D02*
X150714285Y-103572200D01*
X150714285Y-103572200D02*
X150619047Y-103619819D01*
X150619047Y-103619819D02*
X150238095Y-103619819D01*
X150238095Y-103619819D02*
X150238095Y-102619819D01*
X150238095Y-102619819D02*
X150571428Y-102619819D01*
X150571428Y-102619819D02*
X150666666Y-102667438D01*
X150666666Y-102667438D02*
X150714285Y-102715057D01*
X150714285Y-102715057D02*
X150761904Y-102810295D01*
X150761904Y-102810295D02*
X150761904Y-102905533D01*
X150761904Y-102905533D02*
X150714285Y-103000771D01*
X150714285Y-103000771D02*
X150666666Y-103048390D01*
X150666666Y-103048390D02*
X150571428Y-103096009D01*
X150571428Y-103096009D02*
X150238095Y-103096009D01*
X151809523Y-103619819D02*
X151476190Y-103143628D01*
X151238095Y-103619819D02*
X151238095Y-102619819D01*
X151238095Y-102619819D02*
X151619047Y-102619819D01*
X151619047Y-102619819D02*
X151714285Y-102667438D01*
X151714285Y-102667438D02*
X151761904Y-102715057D01*
X151761904Y-102715057D02*
X151809523Y-102810295D01*
X151809523Y-102810295D02*
X151809523Y-102953152D01*
X151809523Y-102953152D02*
X151761904Y-103048390D01*
X151761904Y-103048390D02*
X151714285Y-103096009D01*
X151714285Y-103096009D02*
X151619047Y-103143628D01*
X151619047Y-103143628D02*
X151238095Y-103143628D01*
X130238095Y-99454819D02*
X130238095Y-100264342D01*
X130238095Y-100264342D02*
X130285714Y-100359580D01*
X130285714Y-100359580D02*
X130333333Y-100407200D01*
X130333333Y-100407200D02*
X130428571Y-100454819D01*
X130428571Y-100454819D02*
X130619047Y-100454819D01*
X130619047Y-100454819D02*
X130714285Y-100407200D01*
X130714285Y-100407200D02*
X130761904Y-100359580D01*
X130761904Y-100359580D02*
X130809523Y-100264342D01*
X130809523Y-100264342D02*
X130809523Y-99454819D01*
X131809523Y-100454819D02*
X131238095Y-100454819D01*
X131523809Y-100454819D02*
X131523809Y-99454819D01*
X131523809Y-99454819D02*
X131428571Y-99597676D01*
X131428571Y-99597676D02*
X131333333Y-99692914D01*
X131333333Y-99692914D02*
X131238095Y-99740533D01*
X143097998Y-116900868D02*
X143017185Y-116927805D01*
X143017185Y-116927805D02*
X142936373Y-117008618D01*
X142936373Y-117008618D02*
X142882498Y-117116367D01*
X142882498Y-117116367D02*
X142882498Y-117224117D01*
X142882498Y-117224117D02*
X142909436Y-117304929D01*
X142909436Y-117304929D02*
X142990248Y-117439616D01*
X142990248Y-117439616D02*
X143071060Y-117520428D01*
X143071060Y-117520428D02*
X143205747Y-117601241D01*
X143205747Y-117601241D02*
X143286560Y-117628178D01*
X143286560Y-117628178D02*
X143394309Y-117628178D01*
X143394309Y-117628178D02*
X143502059Y-117574303D01*
X143502059Y-117574303D02*
X143555934Y-117520428D01*
X143555934Y-117520428D02*
X143609808Y-117412679D01*
X143609808Y-117412679D02*
X143609808Y-117358804D01*
X143609808Y-117358804D02*
X143421247Y-117170242D01*
X143421247Y-117170242D02*
X143313497Y-117277992D01*
X143906120Y-117170242D02*
X143340434Y-116604557D01*
X143340434Y-116604557D02*
X143555934Y-116389057D01*
X143555934Y-116389057D02*
X143636746Y-116362120D01*
X143636746Y-116362120D02*
X143690621Y-116362120D01*
X143690621Y-116362120D02*
X143771433Y-116389057D01*
X143771433Y-116389057D02*
X143852245Y-116469870D01*
X143852245Y-116469870D02*
X143879182Y-116550682D01*
X143879182Y-116550682D02*
X143879182Y-116604557D01*
X143879182Y-116604557D02*
X143852245Y-116685369D01*
X143852245Y-116685369D02*
X143636746Y-116900868D01*
X144768117Y-116308245D02*
X144444868Y-116631494D01*
X144606492Y-116469870D02*
X144040807Y-115904184D01*
X144040807Y-115904184D02*
X144067744Y-116038871D01*
X144067744Y-116038871D02*
X144067744Y-116146621D01*
X144067744Y-116146621D02*
X144040807Y-116227433D01*
X144768117Y-115661747D02*
X144687305Y-115688685D01*
X144687305Y-115688685D02*
X144633430Y-115688685D01*
X144633430Y-115688685D02*
X144552618Y-115661747D01*
X144552618Y-115661747D02*
X144525680Y-115634810D01*
X144525680Y-115634810D02*
X144498743Y-115553998D01*
X144498743Y-115553998D02*
X144498743Y-115500123D01*
X144498743Y-115500123D02*
X144525680Y-115419311D01*
X144525680Y-115419311D02*
X144633430Y-115311561D01*
X144633430Y-115311561D02*
X144714242Y-115284624D01*
X144714242Y-115284624D02*
X144768117Y-115284624D01*
X144768117Y-115284624D02*
X144848929Y-115311561D01*
X144848929Y-115311561D02*
X144875866Y-115338499D01*
X144875866Y-115338499D02*
X144902804Y-115419311D01*
X144902804Y-115419311D02*
X144902804Y-115473186D01*
X144902804Y-115473186D02*
X144875866Y-115553998D01*
X144875866Y-115553998D02*
X144768117Y-115661747D01*
X144768117Y-115661747D02*
X144741179Y-115742560D01*
X144741179Y-115742560D02*
X144741179Y-115796434D01*
X144741179Y-115796434D02*
X144768117Y-115877247D01*
X144768117Y-115877247D02*
X144875866Y-115984996D01*
X144875866Y-115984996D02*
X144956679Y-116011934D01*
X144956679Y-116011934D02*
X145010553Y-116011934D01*
X145010553Y-116011934D02*
X145091366Y-115984996D01*
X145091366Y-115984996D02*
X145199115Y-115877247D01*
X145199115Y-115877247D02*
X145226053Y-115796434D01*
X145226053Y-115796434D02*
X145226053Y-115742560D01*
X145226053Y-115742560D02*
X145199115Y-115661747D01*
X145199115Y-115661747D02*
X145091366Y-115553998D01*
X145091366Y-115553998D02*
X145010553Y-115527060D01*
X145010553Y-115527060D02*
X144956679Y-115527060D01*
X144956679Y-115527060D02*
X144875866Y-115553998D01*
X116843998Y-111820868D02*
X116763185Y-111847805D01*
X116763185Y-111847805D02*
X116682373Y-111928618D01*
X116682373Y-111928618D02*
X116628498Y-112036367D01*
X116628498Y-112036367D02*
X116628498Y-112144117D01*
X116628498Y-112144117D02*
X116655436Y-112224929D01*
X116655436Y-112224929D02*
X116736248Y-112359616D01*
X116736248Y-112359616D02*
X116817060Y-112440428D01*
X116817060Y-112440428D02*
X116951747Y-112521241D01*
X116951747Y-112521241D02*
X117032560Y-112548178D01*
X117032560Y-112548178D02*
X117140309Y-112548178D01*
X117140309Y-112548178D02*
X117248059Y-112494303D01*
X117248059Y-112494303D02*
X117301934Y-112440428D01*
X117301934Y-112440428D02*
X117355808Y-112332679D01*
X117355808Y-112332679D02*
X117355808Y-112278804D01*
X117355808Y-112278804D02*
X117167247Y-112090242D01*
X117167247Y-112090242D02*
X117059497Y-112197992D01*
X117652120Y-112090242D02*
X117086434Y-111524557D01*
X117086434Y-111524557D02*
X117301934Y-111309057D01*
X117301934Y-111309057D02*
X117382746Y-111282120D01*
X117382746Y-111282120D02*
X117436621Y-111282120D01*
X117436621Y-111282120D02*
X117517433Y-111309057D01*
X117517433Y-111309057D02*
X117598245Y-111389870D01*
X117598245Y-111389870D02*
X117625182Y-111470682D01*
X117625182Y-111470682D02*
X117625182Y-111524557D01*
X117625182Y-111524557D02*
X117598245Y-111605369D01*
X117598245Y-111605369D02*
X117382746Y-111820868D01*
X118514117Y-111228245D02*
X118190868Y-111551494D01*
X118352492Y-111389870D02*
X117786807Y-110824184D01*
X117786807Y-110824184D02*
X117813744Y-110958871D01*
X117813744Y-110958871D02*
X117813744Y-111066621D01*
X117813744Y-111066621D02*
X117786807Y-111147433D01*
X119052865Y-110689497D02*
X118729616Y-111012746D01*
X118891240Y-110851121D02*
X118325555Y-110285436D01*
X118325555Y-110285436D02*
X118352492Y-110420123D01*
X118352492Y-110420123D02*
X118352492Y-110527873D01*
X118352492Y-110527873D02*
X118325555Y-110608685D01*
X117513372Y-101391494D02*
X117432560Y-101418431D01*
X117432560Y-101418431D02*
X117351748Y-101499243D01*
X117351748Y-101499243D02*
X117297873Y-101606993D01*
X117297873Y-101606993D02*
X117297873Y-101714742D01*
X117297873Y-101714742D02*
X117324810Y-101795555D01*
X117324810Y-101795555D02*
X117405623Y-101930242D01*
X117405623Y-101930242D02*
X117486435Y-102011054D01*
X117486435Y-102011054D02*
X117621122Y-102091866D01*
X117621122Y-102091866D02*
X117701934Y-102118803D01*
X117701934Y-102118803D02*
X117809684Y-102118803D01*
X117809684Y-102118803D02*
X117917433Y-102064929D01*
X117917433Y-102064929D02*
X117971308Y-102011054D01*
X117971308Y-102011054D02*
X118025183Y-101903304D01*
X118025183Y-101903304D02*
X118025183Y-101849429D01*
X118025183Y-101849429D02*
X117836621Y-101660868D01*
X117836621Y-101660868D02*
X117728871Y-101768617D01*
X118321494Y-101660868D02*
X117755809Y-101095182D01*
X117755809Y-101095182D02*
X117971308Y-100879683D01*
X117971308Y-100879683D02*
X118052120Y-100852746D01*
X118052120Y-100852746D02*
X118105995Y-100852746D01*
X118105995Y-100852746D02*
X118186807Y-100879683D01*
X118186807Y-100879683D02*
X118267619Y-100960495D01*
X118267619Y-100960495D02*
X118294557Y-101041307D01*
X118294557Y-101041307D02*
X118294557Y-101095182D01*
X118294557Y-101095182D02*
X118267619Y-101175994D01*
X118267619Y-101175994D02*
X118052120Y-101391494D01*
X118644743Y-100691121D02*
X118563931Y-100718059D01*
X118563931Y-100718059D02*
X118510056Y-100718059D01*
X118510056Y-100718059D02*
X118429244Y-100691121D01*
X118429244Y-100691121D02*
X118402306Y-100664184D01*
X118402306Y-100664184D02*
X118375369Y-100583372D01*
X118375369Y-100583372D02*
X118375369Y-100529497D01*
X118375369Y-100529497D02*
X118402306Y-100448685D01*
X118402306Y-100448685D02*
X118510056Y-100340935D01*
X118510056Y-100340935D02*
X118590868Y-100313998D01*
X118590868Y-100313998D02*
X118644743Y-100313998D01*
X118644743Y-100313998D02*
X118725555Y-100340935D01*
X118725555Y-100340935D02*
X118752493Y-100367872D01*
X118752493Y-100367872D02*
X118779430Y-100448685D01*
X118779430Y-100448685D02*
X118779430Y-100502559D01*
X118779430Y-100502559D02*
X118752493Y-100583372D01*
X118752493Y-100583372D02*
X118644743Y-100691121D01*
X118644743Y-100691121D02*
X118617806Y-100771933D01*
X118617806Y-100771933D02*
X118617806Y-100825808D01*
X118617806Y-100825808D02*
X118644743Y-100906620D01*
X118644743Y-100906620D02*
X118752493Y-101014370D01*
X118752493Y-101014370D02*
X118833305Y-101041307D01*
X118833305Y-101041307D02*
X118887180Y-101041307D01*
X118887180Y-101041307D02*
X118967992Y-101014370D01*
X118967992Y-101014370D02*
X119075741Y-100906620D01*
X119075741Y-100906620D02*
X119102679Y-100825808D01*
X119102679Y-100825808D02*
X119102679Y-100771933D01*
X119102679Y-100771933D02*
X119075741Y-100691121D01*
X119075741Y-100691121D02*
X118967992Y-100583372D01*
X118967992Y-100583372D02*
X118887180Y-100556434D01*
X118887180Y-100556434D02*
X118833305Y-100556434D01*
X118833305Y-100556434D02*
X118752493Y-100583372D01*
X143097998Y-111820868D02*
X143017185Y-111847805D01*
X143017185Y-111847805D02*
X142936373Y-111928618D01*
X142936373Y-111928618D02*
X142882498Y-112036367D01*
X142882498Y-112036367D02*
X142882498Y-112144117D01*
X142882498Y-112144117D02*
X142909436Y-112224929D01*
X142909436Y-112224929D02*
X142990248Y-112359616D01*
X142990248Y-112359616D02*
X143071060Y-112440428D01*
X143071060Y-112440428D02*
X143205747Y-112521241D01*
X143205747Y-112521241D02*
X143286560Y-112548178D01*
X143286560Y-112548178D02*
X143394309Y-112548178D01*
X143394309Y-112548178D02*
X143502059Y-112494303D01*
X143502059Y-112494303D02*
X143555934Y-112440428D01*
X143555934Y-112440428D02*
X143609808Y-112332679D01*
X143609808Y-112332679D02*
X143609808Y-112278804D01*
X143609808Y-112278804D02*
X143421247Y-112090242D01*
X143421247Y-112090242D02*
X143313497Y-112197992D01*
X143906120Y-112090242D02*
X143340434Y-111524557D01*
X143340434Y-111524557D02*
X143555934Y-111309057D01*
X143555934Y-111309057D02*
X143636746Y-111282120D01*
X143636746Y-111282120D02*
X143690621Y-111282120D01*
X143690621Y-111282120D02*
X143771433Y-111309057D01*
X143771433Y-111309057D02*
X143852245Y-111389870D01*
X143852245Y-111389870D02*
X143879182Y-111470682D01*
X143879182Y-111470682D02*
X143879182Y-111524557D01*
X143879182Y-111524557D02*
X143852245Y-111605369D01*
X143852245Y-111605369D02*
X143636746Y-111820868D01*
X143933057Y-111039683D02*
X143933057Y-110985809D01*
X143933057Y-110985809D02*
X143959995Y-110904996D01*
X143959995Y-110904996D02*
X144094682Y-110770309D01*
X144094682Y-110770309D02*
X144175494Y-110743372D01*
X144175494Y-110743372D02*
X144229369Y-110743372D01*
X144229369Y-110743372D02*
X144310181Y-110770309D01*
X144310181Y-110770309D02*
X144364056Y-110824184D01*
X144364056Y-110824184D02*
X144417930Y-110931934D01*
X144417930Y-110931934D02*
X144417930Y-111578431D01*
X144417930Y-111578431D02*
X144768117Y-111228245D01*
X144552618Y-110312373D02*
X144606492Y-110258499D01*
X144606492Y-110258499D02*
X144687305Y-110231561D01*
X144687305Y-110231561D02*
X144741179Y-110231561D01*
X144741179Y-110231561D02*
X144821992Y-110258499D01*
X144821992Y-110258499D02*
X144956679Y-110339311D01*
X144956679Y-110339311D02*
X145091366Y-110473998D01*
X145091366Y-110473998D02*
X145172178Y-110608685D01*
X145172178Y-110608685D02*
X145199115Y-110689497D01*
X145199115Y-110689497D02*
X145199115Y-110743372D01*
X145199115Y-110743372D02*
X145172178Y-110824184D01*
X145172178Y-110824184D02*
X145118303Y-110878059D01*
X145118303Y-110878059D02*
X145037491Y-110904996D01*
X145037491Y-110904996D02*
X144983616Y-110904996D01*
X144983616Y-110904996D02*
X144902804Y-110878059D01*
X144902804Y-110878059D02*
X144768117Y-110797247D01*
X144768117Y-110797247D02*
X144633430Y-110662560D01*
X144633430Y-110662560D02*
X144552618Y-110527873D01*
X144552618Y-110527873D02*
X144525680Y-110447060D01*
X144525680Y-110447060D02*
X144525680Y-110393186D01*
X144525680Y-110393186D02*
X144552618Y-110312373D01*
X143097998Y-114360868D02*
X143017185Y-114387805D01*
X143017185Y-114387805D02*
X142936373Y-114468618D01*
X142936373Y-114468618D02*
X142882498Y-114576367D01*
X142882498Y-114576367D02*
X142882498Y-114684117D01*
X142882498Y-114684117D02*
X142909436Y-114764929D01*
X142909436Y-114764929D02*
X142990248Y-114899616D01*
X142990248Y-114899616D02*
X143071060Y-114980428D01*
X143071060Y-114980428D02*
X143205747Y-115061241D01*
X143205747Y-115061241D02*
X143286560Y-115088178D01*
X143286560Y-115088178D02*
X143394309Y-115088178D01*
X143394309Y-115088178D02*
X143502059Y-115034303D01*
X143502059Y-115034303D02*
X143555934Y-114980428D01*
X143555934Y-114980428D02*
X143609808Y-114872679D01*
X143609808Y-114872679D02*
X143609808Y-114818804D01*
X143609808Y-114818804D02*
X143421247Y-114630242D01*
X143421247Y-114630242D02*
X143313497Y-114737992D01*
X143906120Y-114630242D02*
X143340434Y-114064557D01*
X143340434Y-114064557D02*
X143555934Y-113849057D01*
X143555934Y-113849057D02*
X143636746Y-113822120D01*
X143636746Y-113822120D02*
X143690621Y-113822120D01*
X143690621Y-113822120D02*
X143771433Y-113849057D01*
X143771433Y-113849057D02*
X143852245Y-113929870D01*
X143852245Y-113929870D02*
X143879182Y-114010682D01*
X143879182Y-114010682D02*
X143879182Y-114064557D01*
X143879182Y-114064557D02*
X143852245Y-114145369D01*
X143852245Y-114145369D02*
X143636746Y-114360868D01*
X144768117Y-113768245D02*
X144444868Y-114091494D01*
X144606492Y-113929870D02*
X144040807Y-113364184D01*
X144040807Y-113364184D02*
X144067744Y-113498871D01*
X144067744Y-113498871D02*
X144067744Y-113606621D01*
X144067744Y-113606621D02*
X144040807Y-113687433D01*
X145037491Y-113498871D02*
X145145240Y-113391121D01*
X145145240Y-113391121D02*
X145172178Y-113310309D01*
X145172178Y-113310309D02*
X145172178Y-113256434D01*
X145172178Y-113256434D02*
X145145240Y-113121747D01*
X145145240Y-113121747D02*
X145064428Y-112987060D01*
X145064428Y-112987060D02*
X144848929Y-112771561D01*
X144848929Y-112771561D02*
X144768117Y-112744624D01*
X144768117Y-112744624D02*
X144714242Y-112744624D01*
X144714242Y-112744624D02*
X144633430Y-112771561D01*
X144633430Y-112771561D02*
X144525680Y-112879311D01*
X144525680Y-112879311D02*
X144498743Y-112960123D01*
X144498743Y-112960123D02*
X144498743Y-113013998D01*
X144498743Y-113013998D02*
X144525680Y-113094810D01*
X144525680Y-113094810D02*
X144660367Y-113229497D01*
X144660367Y-113229497D02*
X144741179Y-113256434D01*
X144741179Y-113256434D02*
X144795054Y-113256434D01*
X144795054Y-113256434D02*
X144875866Y-113229497D01*
X144875866Y-113229497D02*
X144983616Y-113121747D01*
X144983616Y-113121747D02*
X145010553Y-113040935D01*
X145010553Y-113040935D02*
X145010553Y-112987060D01*
X145010553Y-112987060D02*
X144983616Y-112906248D01*
X116943998Y-121980868D02*
X116863185Y-122007805D01*
X116863185Y-122007805D02*
X116782373Y-122088618D01*
X116782373Y-122088618D02*
X116728498Y-122196367D01*
X116728498Y-122196367D02*
X116728498Y-122304117D01*
X116728498Y-122304117D02*
X116755436Y-122384929D01*
X116755436Y-122384929D02*
X116836248Y-122519616D01*
X116836248Y-122519616D02*
X116917060Y-122600428D01*
X116917060Y-122600428D02*
X117051747Y-122681241D01*
X117051747Y-122681241D02*
X117132560Y-122708178D01*
X117132560Y-122708178D02*
X117240309Y-122708178D01*
X117240309Y-122708178D02*
X117348059Y-122654303D01*
X117348059Y-122654303D02*
X117401934Y-122600428D01*
X117401934Y-122600428D02*
X117455808Y-122492679D01*
X117455808Y-122492679D02*
X117455808Y-122438804D01*
X117455808Y-122438804D02*
X117267247Y-122250242D01*
X117267247Y-122250242D02*
X117159497Y-122357992D01*
X117752120Y-122250242D02*
X117186434Y-121684557D01*
X117186434Y-121684557D02*
X117401934Y-121469057D01*
X117401934Y-121469057D02*
X117482746Y-121442120D01*
X117482746Y-121442120D02*
X117536621Y-121442120D01*
X117536621Y-121442120D02*
X117617433Y-121469057D01*
X117617433Y-121469057D02*
X117698245Y-121549870D01*
X117698245Y-121549870D02*
X117725182Y-121630682D01*
X117725182Y-121630682D02*
X117725182Y-121684557D01*
X117725182Y-121684557D02*
X117698245Y-121765369D01*
X117698245Y-121765369D02*
X117482746Y-121980868D01*
X118614117Y-121388245D02*
X118290868Y-121711494D01*
X118452492Y-121549870D02*
X117886807Y-120984184D01*
X117886807Y-120984184D02*
X117913744Y-121118871D01*
X117913744Y-121118871D02*
X117913744Y-121226621D01*
X117913744Y-121226621D02*
X117886807Y-121307433D01*
X118721866Y-120526248D02*
X119098990Y-120903372D01*
X118371680Y-120445436D02*
X118641054Y-120984184D01*
X118641054Y-120984184D02*
X118991240Y-120633998D01*
X117486435Y-119198431D02*
X117405623Y-119225368D01*
X117405623Y-119225368D02*
X117324811Y-119306180D01*
X117324811Y-119306180D02*
X117270936Y-119413930D01*
X117270936Y-119413930D02*
X117270936Y-119521680D01*
X117270936Y-119521680D02*
X117297873Y-119602492D01*
X117297873Y-119602492D02*
X117378685Y-119737179D01*
X117378685Y-119737179D02*
X117459498Y-119817991D01*
X117459498Y-119817991D02*
X117594185Y-119898803D01*
X117594185Y-119898803D02*
X117674997Y-119925741D01*
X117674997Y-119925741D02*
X117782746Y-119925741D01*
X117782746Y-119925741D02*
X117890496Y-119871866D01*
X117890496Y-119871866D02*
X117944371Y-119817991D01*
X117944371Y-119817991D02*
X117998246Y-119710241D01*
X117998246Y-119710241D02*
X117998246Y-119656367D01*
X117998246Y-119656367D02*
X117809684Y-119467805D01*
X117809684Y-119467805D02*
X117701934Y-119575554D01*
X118294557Y-119467805D02*
X117728872Y-118902119D01*
X117728872Y-118902119D02*
X118617806Y-119144556D01*
X118617806Y-119144556D02*
X118052120Y-118578871D01*
X118887180Y-118875182D02*
X118321494Y-118309497D01*
X118321494Y-118309497D02*
X118456181Y-118174810D01*
X118456181Y-118174810D02*
X118563931Y-118120935D01*
X118563931Y-118120935D02*
X118671680Y-118120935D01*
X118671680Y-118120935D02*
X118752493Y-118147872D01*
X118752493Y-118147872D02*
X118887180Y-118228685D01*
X118887180Y-118228685D02*
X118967992Y-118309497D01*
X118967992Y-118309497D02*
X119048804Y-118444184D01*
X119048804Y-118444184D02*
X119075741Y-118524996D01*
X119075741Y-118524996D02*
X119075741Y-118632746D01*
X119075741Y-118632746D02*
X119021867Y-118740495D01*
X119021867Y-118740495D02*
X118887180Y-118875182D01*
X117486435Y-106498431D02*
X117405623Y-106525368D01*
X117405623Y-106525368D02*
X117324811Y-106606180D01*
X117324811Y-106606180D02*
X117270936Y-106713930D01*
X117270936Y-106713930D02*
X117270936Y-106821680D01*
X117270936Y-106821680D02*
X117297873Y-106902492D01*
X117297873Y-106902492D02*
X117378685Y-107037179D01*
X117378685Y-107037179D02*
X117459498Y-107117991D01*
X117459498Y-107117991D02*
X117594185Y-107198803D01*
X117594185Y-107198803D02*
X117674997Y-107225741D01*
X117674997Y-107225741D02*
X117782746Y-107225741D01*
X117782746Y-107225741D02*
X117890496Y-107171866D01*
X117890496Y-107171866D02*
X117944371Y-107117991D01*
X117944371Y-107117991D02*
X117998246Y-107010241D01*
X117998246Y-107010241D02*
X117998246Y-106956367D01*
X117998246Y-106956367D02*
X117809684Y-106767805D01*
X117809684Y-106767805D02*
X117701934Y-106875554D01*
X118294557Y-106767805D02*
X117728872Y-106202119D01*
X117728872Y-106202119D02*
X118617806Y-106444556D01*
X118617806Y-106444556D02*
X118052120Y-105878871D01*
X118887180Y-106175182D02*
X118321494Y-105609497D01*
X118321494Y-105609497D02*
X118456181Y-105474810D01*
X118456181Y-105474810D02*
X118563931Y-105420935D01*
X118563931Y-105420935D02*
X118671680Y-105420935D01*
X118671680Y-105420935D02*
X118752493Y-105447872D01*
X118752493Y-105447872D02*
X118887180Y-105528685D01*
X118887180Y-105528685D02*
X118967992Y-105609497D01*
X118967992Y-105609497D02*
X119048804Y-105744184D01*
X119048804Y-105744184D02*
X119075741Y-105824996D01*
X119075741Y-105824996D02*
X119075741Y-105932746D01*
X119075741Y-105932746D02*
X119021867Y-106040495D01*
X119021867Y-106040495D02*
X118887180Y-106175182D01*
X117513372Y-103931494D02*
X117432560Y-103958431D01*
X117432560Y-103958431D02*
X117351748Y-104039243D01*
X117351748Y-104039243D02*
X117297873Y-104146993D01*
X117297873Y-104146993D02*
X117297873Y-104254742D01*
X117297873Y-104254742D02*
X117324810Y-104335555D01*
X117324810Y-104335555D02*
X117405623Y-104470242D01*
X117405623Y-104470242D02*
X117486435Y-104551054D01*
X117486435Y-104551054D02*
X117621122Y-104631866D01*
X117621122Y-104631866D02*
X117701934Y-104658803D01*
X117701934Y-104658803D02*
X117809684Y-104658803D01*
X117809684Y-104658803D02*
X117917433Y-104604929D01*
X117917433Y-104604929D02*
X117971308Y-104551054D01*
X117971308Y-104551054D02*
X118025183Y-104443304D01*
X118025183Y-104443304D02*
X118025183Y-104389429D01*
X118025183Y-104389429D02*
X117836621Y-104200868D01*
X117836621Y-104200868D02*
X117728871Y-104308617D01*
X118321494Y-104200868D02*
X117755809Y-103635182D01*
X117755809Y-103635182D02*
X117971308Y-103419683D01*
X117971308Y-103419683D02*
X118052120Y-103392746D01*
X118052120Y-103392746D02*
X118105995Y-103392746D01*
X118105995Y-103392746D02*
X118186807Y-103419683D01*
X118186807Y-103419683D02*
X118267619Y-103500495D01*
X118267619Y-103500495D02*
X118294557Y-103581307D01*
X118294557Y-103581307D02*
X118294557Y-103635182D01*
X118294557Y-103635182D02*
X118267619Y-103715994D01*
X118267619Y-103715994D02*
X118052120Y-103931494D01*
X118914117Y-103608245D02*
X119021867Y-103500495D01*
X119021867Y-103500495D02*
X119048804Y-103419683D01*
X119048804Y-103419683D02*
X119048804Y-103365808D01*
X119048804Y-103365808D02*
X119021867Y-103231121D01*
X119021867Y-103231121D02*
X118941054Y-103096434D01*
X118941054Y-103096434D02*
X118725555Y-102880935D01*
X118725555Y-102880935D02*
X118644743Y-102853998D01*
X118644743Y-102853998D02*
X118590868Y-102853998D01*
X118590868Y-102853998D02*
X118510056Y-102880935D01*
X118510056Y-102880935D02*
X118402306Y-102988685D01*
X118402306Y-102988685D02*
X118375369Y-103069497D01*
X118375369Y-103069497D02*
X118375369Y-103123372D01*
X118375369Y-103123372D02*
X118402306Y-103204184D01*
X118402306Y-103204184D02*
X118536993Y-103338871D01*
X118536993Y-103338871D02*
X118617806Y-103365808D01*
X118617806Y-103365808D02*
X118671680Y-103365808D01*
X118671680Y-103365808D02*
X118752493Y-103338871D01*
X118752493Y-103338871D02*
X118860242Y-103231121D01*
X118860242Y-103231121D02*
X118887180Y-103150309D01*
X118887180Y-103150309D02*
X118887180Y-103096434D01*
X118887180Y-103096434D02*
X118860242Y-103015622D01*
X143086435Y-106498431D02*
X143005623Y-106525368D01*
X143005623Y-106525368D02*
X142924811Y-106606180D01*
X142924811Y-106606180D02*
X142870936Y-106713930D01*
X142870936Y-106713930D02*
X142870936Y-106821680D01*
X142870936Y-106821680D02*
X142897873Y-106902492D01*
X142897873Y-106902492D02*
X142978685Y-107037179D01*
X142978685Y-107037179D02*
X143059498Y-107117991D01*
X143059498Y-107117991D02*
X143194185Y-107198803D01*
X143194185Y-107198803D02*
X143274997Y-107225741D01*
X143274997Y-107225741D02*
X143382746Y-107225741D01*
X143382746Y-107225741D02*
X143490496Y-107171866D01*
X143490496Y-107171866D02*
X143544371Y-107117991D01*
X143544371Y-107117991D02*
X143598246Y-107010241D01*
X143598246Y-107010241D02*
X143598246Y-106956367D01*
X143598246Y-106956367D02*
X143409684Y-106767805D01*
X143409684Y-106767805D02*
X143301934Y-106875554D01*
X143894557Y-106767805D02*
X143328872Y-106202119D01*
X143328872Y-106202119D02*
X144217806Y-106444556D01*
X144217806Y-106444556D02*
X143652120Y-105878871D01*
X144487180Y-106175182D02*
X143921494Y-105609497D01*
X143921494Y-105609497D02*
X144056181Y-105474810D01*
X144056181Y-105474810D02*
X144163931Y-105420935D01*
X144163931Y-105420935D02*
X144271680Y-105420935D01*
X144271680Y-105420935D02*
X144352493Y-105447872D01*
X144352493Y-105447872D02*
X144487180Y-105528685D01*
X144487180Y-105528685D02*
X144567992Y-105609497D01*
X144567992Y-105609497D02*
X144648804Y-105744184D01*
X144648804Y-105744184D02*
X144675741Y-105824996D01*
X144675741Y-105824996D02*
X144675741Y-105932746D01*
X144675741Y-105932746D02*
X144621867Y-106040495D01*
X144621867Y-106040495D02*
X144487180Y-106175182D01*
X142890123Y-86490868D02*
X143240309Y-86140682D01*
X143240309Y-86140682D02*
X143267247Y-86544743D01*
X143267247Y-86544743D02*
X143348059Y-86463931D01*
X143348059Y-86463931D02*
X143428871Y-86436993D01*
X143428871Y-86436993D02*
X143482746Y-86436993D01*
X143482746Y-86436993D02*
X143563558Y-86463931D01*
X143563558Y-86463931D02*
X143698245Y-86598618D01*
X143698245Y-86598618D02*
X143725182Y-86679430D01*
X143725182Y-86679430D02*
X143725182Y-86733305D01*
X143725182Y-86733305D02*
X143698245Y-86814117D01*
X143698245Y-86814117D02*
X143536621Y-86975741D01*
X143536621Y-86975741D02*
X143455808Y-87002679D01*
X143455808Y-87002679D02*
X143401934Y-87002679D01*
X143401934Y-85979057D02*
X144156181Y-86356181D01*
X144156181Y-86356181D02*
X143779057Y-85601934D01*
X143913744Y-85467247D02*
X144263930Y-85117061D01*
X144263930Y-85117061D02*
X144290868Y-85521122D01*
X144290868Y-85521122D02*
X144371680Y-85440309D01*
X144371680Y-85440309D02*
X144452492Y-85413372D01*
X144452492Y-85413372D02*
X144506367Y-85413372D01*
X144506367Y-85413372D02*
X144587179Y-85440309D01*
X144587179Y-85440309D02*
X144721866Y-85574996D01*
X144721866Y-85574996D02*
X144748804Y-85655809D01*
X144748804Y-85655809D02*
X144748804Y-85709683D01*
X144748804Y-85709683D02*
X144721866Y-85790496D01*
X144721866Y-85790496D02*
X144560242Y-85952120D01*
X144560242Y-85952120D02*
X144479430Y-85979057D01*
X144479430Y-85979057D02*
X144425555Y-85979057D01*
X143097998Y-96590868D02*
X143017185Y-96617805D01*
X143017185Y-96617805D02*
X142936373Y-96698618D01*
X142936373Y-96698618D02*
X142882498Y-96806367D01*
X142882498Y-96806367D02*
X142882498Y-96914117D01*
X142882498Y-96914117D02*
X142909436Y-96994929D01*
X142909436Y-96994929D02*
X142990248Y-97129616D01*
X142990248Y-97129616D02*
X143071060Y-97210428D01*
X143071060Y-97210428D02*
X143205747Y-97291241D01*
X143205747Y-97291241D02*
X143286560Y-97318178D01*
X143286560Y-97318178D02*
X143394309Y-97318178D01*
X143394309Y-97318178D02*
X143502059Y-97264303D01*
X143502059Y-97264303D02*
X143555934Y-97210428D01*
X143555934Y-97210428D02*
X143609808Y-97102679D01*
X143609808Y-97102679D02*
X143609808Y-97048804D01*
X143609808Y-97048804D02*
X143421247Y-96860242D01*
X143421247Y-96860242D02*
X143313497Y-96967992D01*
X143906120Y-96860242D02*
X143340434Y-96294557D01*
X143340434Y-96294557D02*
X143555934Y-96079057D01*
X143555934Y-96079057D02*
X143636746Y-96052120D01*
X143636746Y-96052120D02*
X143690621Y-96052120D01*
X143690621Y-96052120D02*
X143771433Y-96079057D01*
X143771433Y-96079057D02*
X143852245Y-96159870D01*
X143852245Y-96159870D02*
X143879182Y-96240682D01*
X143879182Y-96240682D02*
X143879182Y-96294557D01*
X143879182Y-96294557D02*
X143852245Y-96375369D01*
X143852245Y-96375369D02*
X143636746Y-96590868D01*
X143933057Y-95809683D02*
X143933057Y-95755809D01*
X143933057Y-95755809D02*
X143959995Y-95674996D01*
X143959995Y-95674996D02*
X144094682Y-95540309D01*
X144094682Y-95540309D02*
X144175494Y-95513372D01*
X144175494Y-95513372D02*
X144229369Y-95513372D01*
X144229369Y-95513372D02*
X144310181Y-95540309D01*
X144310181Y-95540309D02*
X144364056Y-95594184D01*
X144364056Y-95594184D02*
X144417930Y-95701934D01*
X144417930Y-95701934D02*
X144417930Y-96348431D01*
X144417930Y-96348431D02*
X144768117Y-95998245D01*
X144390993Y-95243998D02*
X144768117Y-94866874D01*
X144768117Y-94866874D02*
X145091366Y-95674996D01*
X117513372Y-75991494D02*
X117432560Y-76018431D01*
X117432560Y-76018431D02*
X117351748Y-76099243D01*
X117351748Y-76099243D02*
X117297873Y-76206993D01*
X117297873Y-76206993D02*
X117297873Y-76314742D01*
X117297873Y-76314742D02*
X117324810Y-76395555D01*
X117324810Y-76395555D02*
X117405623Y-76530242D01*
X117405623Y-76530242D02*
X117486435Y-76611054D01*
X117486435Y-76611054D02*
X117621122Y-76691866D01*
X117621122Y-76691866D02*
X117701934Y-76718803D01*
X117701934Y-76718803D02*
X117809684Y-76718803D01*
X117809684Y-76718803D02*
X117917433Y-76664929D01*
X117917433Y-76664929D02*
X117971308Y-76611054D01*
X117971308Y-76611054D02*
X118025183Y-76503304D01*
X118025183Y-76503304D02*
X118025183Y-76449429D01*
X118025183Y-76449429D02*
X117836621Y-76260868D01*
X117836621Y-76260868D02*
X117728871Y-76368617D01*
X118321494Y-76260868D02*
X117755809Y-75695182D01*
X117755809Y-75695182D02*
X117971308Y-75479683D01*
X117971308Y-75479683D02*
X118052120Y-75452746D01*
X118052120Y-75452746D02*
X118105995Y-75452746D01*
X118105995Y-75452746D02*
X118186807Y-75479683D01*
X118186807Y-75479683D02*
X118267619Y-75560495D01*
X118267619Y-75560495D02*
X118294557Y-75641307D01*
X118294557Y-75641307D02*
X118294557Y-75695182D01*
X118294557Y-75695182D02*
X118267619Y-75775994D01*
X118267619Y-75775994D02*
X118052120Y-75991494D01*
X118429244Y-75021747D02*
X118483119Y-74967872D01*
X118483119Y-74967872D02*
X118563931Y-74940935D01*
X118563931Y-74940935D02*
X118617806Y-74940935D01*
X118617806Y-74940935D02*
X118698618Y-74967872D01*
X118698618Y-74967872D02*
X118833305Y-75048685D01*
X118833305Y-75048685D02*
X118967992Y-75183372D01*
X118967992Y-75183372D02*
X119048804Y-75318059D01*
X119048804Y-75318059D02*
X119075741Y-75398871D01*
X119075741Y-75398871D02*
X119075741Y-75452746D01*
X119075741Y-75452746D02*
X119048804Y-75533558D01*
X119048804Y-75533558D02*
X118994929Y-75587433D01*
X118994929Y-75587433D02*
X118914117Y-75614370D01*
X118914117Y-75614370D02*
X118860242Y-75614370D01*
X118860242Y-75614370D02*
X118779430Y-75587433D01*
X118779430Y-75587433D02*
X118644743Y-75506620D01*
X118644743Y-75506620D02*
X118510056Y-75371933D01*
X118510056Y-75371933D02*
X118429244Y-75237246D01*
X118429244Y-75237246D02*
X118402306Y-75156434D01*
X118402306Y-75156434D02*
X118402306Y-75102559D01*
X118402306Y-75102559D02*
X118429244Y-75021747D01*
X142953406Y-76527585D02*
X143707653Y-76904709D01*
X143707653Y-76904709D02*
X143330529Y-76150462D01*
X143977027Y-76042712D02*
X144084776Y-75988838D01*
X144084776Y-75988838D02*
X144138651Y-75988838D01*
X144138651Y-75988838D02*
X144219463Y-76015775D01*
X144219463Y-76015775D02*
X144300276Y-76096587D01*
X144300276Y-76096587D02*
X144327213Y-76177399D01*
X144327213Y-76177399D02*
X144327213Y-76231274D01*
X144327213Y-76231274D02*
X144300276Y-76312086D01*
X144300276Y-76312086D02*
X144084776Y-76527586D01*
X144084776Y-76527586D02*
X143519091Y-75961900D01*
X143519091Y-75961900D02*
X143707653Y-75773338D01*
X143707653Y-75773338D02*
X143788465Y-75746401D01*
X143788465Y-75746401D02*
X143842340Y-75746401D01*
X143842340Y-75746401D02*
X143923152Y-75773338D01*
X143923152Y-75773338D02*
X143977027Y-75827213D01*
X143977027Y-75827213D02*
X144003964Y-75908025D01*
X144003964Y-75908025D02*
X144003964Y-75961900D01*
X144003964Y-75961900D02*
X143977027Y-76042712D01*
X143977027Y-76042712D02*
X143788465Y-76231274D01*
X144084776Y-75396215D02*
X144542712Y-75854151D01*
X144542712Y-75854151D02*
X144623524Y-75881088D01*
X144623524Y-75881088D02*
X144677399Y-75881088D01*
X144677399Y-75881088D02*
X144758211Y-75854151D01*
X144758211Y-75854151D02*
X144865961Y-75746401D01*
X144865961Y-75746401D02*
X144892898Y-75665589D01*
X144892898Y-75665589D02*
X144892898Y-75611714D01*
X144892898Y-75611714D02*
X144865961Y-75530902D01*
X144865961Y-75530902D02*
X144408025Y-75072966D01*
X145189210Y-75369277D02*
X145296959Y-75315403D01*
X145296959Y-75315403D02*
X145431646Y-75180716D01*
X145431646Y-75180716D02*
X145458584Y-75099903D01*
X145458584Y-75099903D02*
X145458584Y-75046029D01*
X145458584Y-75046029D02*
X145431646Y-74965216D01*
X145431646Y-74965216D02*
X145377771Y-74911342D01*
X145377771Y-74911342D02*
X145296959Y-74884404D01*
X145296959Y-74884404D02*
X145243084Y-74884404D01*
X145243084Y-74884404D02*
X145162272Y-74911342D01*
X145162272Y-74911342D02*
X145027585Y-74992154D01*
X145027585Y-74992154D02*
X144946773Y-75019091D01*
X144946773Y-75019091D02*
X144892898Y-75019091D01*
X144892898Y-75019091D02*
X144812086Y-74992154D01*
X144812086Y-74992154D02*
X144758211Y-74938279D01*
X144758211Y-74938279D02*
X144731274Y-74857467D01*
X144731274Y-74857467D02*
X144731274Y-74803592D01*
X144731274Y-74803592D02*
X144758211Y-74722780D01*
X144758211Y-74722780D02*
X144892898Y-74588093D01*
X144892898Y-74588093D02*
X145000648Y-74534218D01*
X117486435Y-93798431D02*
X117405623Y-93825368D01*
X117405623Y-93825368D02*
X117324811Y-93906180D01*
X117324811Y-93906180D02*
X117270936Y-94013930D01*
X117270936Y-94013930D02*
X117270936Y-94121680D01*
X117270936Y-94121680D02*
X117297873Y-94202492D01*
X117297873Y-94202492D02*
X117378685Y-94337179D01*
X117378685Y-94337179D02*
X117459498Y-94417991D01*
X117459498Y-94417991D02*
X117594185Y-94498803D01*
X117594185Y-94498803D02*
X117674997Y-94525741D01*
X117674997Y-94525741D02*
X117782746Y-94525741D01*
X117782746Y-94525741D02*
X117890496Y-94471866D01*
X117890496Y-94471866D02*
X117944371Y-94417991D01*
X117944371Y-94417991D02*
X117998246Y-94310241D01*
X117998246Y-94310241D02*
X117998246Y-94256367D01*
X117998246Y-94256367D02*
X117809684Y-94067805D01*
X117809684Y-94067805D02*
X117701934Y-94175554D01*
X118294557Y-94067805D02*
X117728872Y-93502119D01*
X117728872Y-93502119D02*
X118617806Y-93744556D01*
X118617806Y-93744556D02*
X118052120Y-93178871D01*
X118887180Y-93475182D02*
X118321494Y-92909497D01*
X118321494Y-92909497D02*
X118456181Y-92774810D01*
X118456181Y-92774810D02*
X118563931Y-92720935D01*
X118563931Y-92720935D02*
X118671680Y-92720935D01*
X118671680Y-92720935D02*
X118752493Y-92747872D01*
X118752493Y-92747872D02*
X118887180Y-92828685D01*
X118887180Y-92828685D02*
X118967992Y-92909497D01*
X118967992Y-92909497D02*
X119048804Y-93044184D01*
X119048804Y-93044184D02*
X119075741Y-93124996D01*
X119075741Y-93124996D02*
X119075741Y-93232746D01*
X119075741Y-93232746D02*
X119021867Y-93340495D01*
X119021867Y-93340495D02*
X118887180Y-93475182D01*
X117413372Y-78521494D02*
X117332560Y-78548431D01*
X117332560Y-78548431D02*
X117251748Y-78629243D01*
X117251748Y-78629243D02*
X117197873Y-78736993D01*
X117197873Y-78736993D02*
X117197873Y-78844742D01*
X117197873Y-78844742D02*
X117224810Y-78925555D01*
X117224810Y-78925555D02*
X117305623Y-79060242D01*
X117305623Y-79060242D02*
X117386435Y-79141054D01*
X117386435Y-79141054D02*
X117521122Y-79221866D01*
X117521122Y-79221866D02*
X117601934Y-79248803D01*
X117601934Y-79248803D02*
X117709684Y-79248803D01*
X117709684Y-79248803D02*
X117817433Y-79194929D01*
X117817433Y-79194929D02*
X117871308Y-79141054D01*
X117871308Y-79141054D02*
X117925183Y-79033304D01*
X117925183Y-79033304D02*
X117925183Y-78979429D01*
X117925183Y-78979429D02*
X117736621Y-78790868D01*
X117736621Y-78790868D02*
X117628871Y-78898617D01*
X118221494Y-78790868D02*
X117655809Y-78225182D01*
X117655809Y-78225182D02*
X117871308Y-78009683D01*
X117871308Y-78009683D02*
X117952120Y-77982746D01*
X117952120Y-77982746D02*
X118005995Y-77982746D01*
X118005995Y-77982746D02*
X118086807Y-78009683D01*
X118086807Y-78009683D02*
X118167619Y-78090495D01*
X118167619Y-78090495D02*
X118194557Y-78171307D01*
X118194557Y-78171307D02*
X118194557Y-78225182D01*
X118194557Y-78225182D02*
X118167619Y-78305994D01*
X118167619Y-78305994D02*
X117952120Y-78521494D01*
X119083491Y-77928871D02*
X118760242Y-78252120D01*
X118921867Y-78090495D02*
X118356181Y-77524810D01*
X118356181Y-77524810D02*
X118383119Y-77659497D01*
X118383119Y-77659497D02*
X118383119Y-77767246D01*
X118383119Y-77767246D02*
X118356181Y-77848059D01*
X117413372Y-83611494D02*
X117332560Y-83638431D01*
X117332560Y-83638431D02*
X117251748Y-83719243D01*
X117251748Y-83719243D02*
X117197873Y-83826993D01*
X117197873Y-83826993D02*
X117197873Y-83934742D01*
X117197873Y-83934742D02*
X117224810Y-84015555D01*
X117224810Y-84015555D02*
X117305623Y-84150242D01*
X117305623Y-84150242D02*
X117386435Y-84231054D01*
X117386435Y-84231054D02*
X117521122Y-84311866D01*
X117521122Y-84311866D02*
X117601934Y-84338803D01*
X117601934Y-84338803D02*
X117709684Y-84338803D01*
X117709684Y-84338803D02*
X117817433Y-84284929D01*
X117817433Y-84284929D02*
X117871308Y-84231054D01*
X117871308Y-84231054D02*
X117925183Y-84123304D01*
X117925183Y-84123304D02*
X117925183Y-84069429D01*
X117925183Y-84069429D02*
X117736621Y-83880868D01*
X117736621Y-83880868D02*
X117628871Y-83988617D01*
X118221494Y-83880868D02*
X117655809Y-83315182D01*
X117655809Y-83315182D02*
X117871308Y-83099683D01*
X117871308Y-83099683D02*
X117952120Y-83072746D01*
X117952120Y-83072746D02*
X118005995Y-83072746D01*
X118005995Y-83072746D02*
X118086807Y-83099683D01*
X118086807Y-83099683D02*
X118167619Y-83180495D01*
X118167619Y-83180495D02*
X118194557Y-83261307D01*
X118194557Y-83261307D02*
X118194557Y-83315182D01*
X118194557Y-83315182D02*
X118167619Y-83395994D01*
X118167619Y-83395994D02*
X117952120Y-83611494D01*
X118248432Y-82830309D02*
X118248432Y-82776434D01*
X118248432Y-82776434D02*
X118275369Y-82695622D01*
X118275369Y-82695622D02*
X118410056Y-82560935D01*
X118410056Y-82560935D02*
X118490868Y-82533998D01*
X118490868Y-82533998D02*
X118544743Y-82533998D01*
X118544743Y-82533998D02*
X118625555Y-82560935D01*
X118625555Y-82560935D02*
X118679430Y-82614810D01*
X118679430Y-82614810D02*
X118733305Y-82722559D01*
X118733305Y-82722559D02*
X118733305Y-83369057D01*
X118733305Y-83369057D02*
X119083491Y-83018871D01*
X143097998Y-104200868D02*
X143017185Y-104227805D01*
X143017185Y-104227805D02*
X142936373Y-104308618D01*
X142936373Y-104308618D02*
X142882498Y-104416367D01*
X142882498Y-104416367D02*
X142882498Y-104524117D01*
X142882498Y-104524117D02*
X142909436Y-104604929D01*
X142909436Y-104604929D02*
X142990248Y-104739616D01*
X142990248Y-104739616D02*
X143071060Y-104820428D01*
X143071060Y-104820428D02*
X143205747Y-104901241D01*
X143205747Y-104901241D02*
X143286560Y-104928178D01*
X143286560Y-104928178D02*
X143394309Y-104928178D01*
X143394309Y-104928178D02*
X143502059Y-104874303D01*
X143502059Y-104874303D02*
X143555934Y-104820428D01*
X143555934Y-104820428D02*
X143609808Y-104712679D01*
X143609808Y-104712679D02*
X143609808Y-104658804D01*
X143609808Y-104658804D02*
X143421247Y-104470242D01*
X143421247Y-104470242D02*
X143313497Y-104577992D01*
X143906120Y-104470242D02*
X143340434Y-103904557D01*
X143340434Y-103904557D02*
X143555934Y-103689057D01*
X143555934Y-103689057D02*
X143636746Y-103662120D01*
X143636746Y-103662120D02*
X143690621Y-103662120D01*
X143690621Y-103662120D02*
X143771433Y-103689057D01*
X143771433Y-103689057D02*
X143852245Y-103769870D01*
X143852245Y-103769870D02*
X143879182Y-103850682D01*
X143879182Y-103850682D02*
X143879182Y-103904557D01*
X143879182Y-103904557D02*
X143852245Y-103985369D01*
X143852245Y-103985369D02*
X143636746Y-104200868D01*
X143933057Y-103419683D02*
X143933057Y-103365809D01*
X143933057Y-103365809D02*
X143959995Y-103284996D01*
X143959995Y-103284996D02*
X144094682Y-103150309D01*
X144094682Y-103150309D02*
X144175494Y-103123372D01*
X144175494Y-103123372D02*
X144229369Y-103123372D01*
X144229369Y-103123372D02*
X144310181Y-103150309D01*
X144310181Y-103150309D02*
X144364056Y-103204184D01*
X144364056Y-103204184D02*
X144417930Y-103311934D01*
X144417930Y-103311934D02*
X144417930Y-103958431D01*
X144417930Y-103958431D02*
X144768117Y-103608245D01*
X144471805Y-102880935D02*
X144471805Y-102827060D01*
X144471805Y-102827060D02*
X144498743Y-102746248D01*
X144498743Y-102746248D02*
X144633430Y-102611561D01*
X144633430Y-102611561D02*
X144714242Y-102584624D01*
X144714242Y-102584624D02*
X144768117Y-102584624D01*
X144768117Y-102584624D02*
X144848929Y-102611561D01*
X144848929Y-102611561D02*
X144902804Y-102665436D01*
X144902804Y-102665436D02*
X144956679Y-102773186D01*
X144956679Y-102773186D02*
X144956679Y-103419683D01*
X144956679Y-103419683D02*
X145306865Y-103069497D01*
X143086435Y-81098431D02*
X143005623Y-81125368D01*
X143005623Y-81125368D02*
X142924811Y-81206180D01*
X142924811Y-81206180D02*
X142870936Y-81313930D01*
X142870936Y-81313930D02*
X142870936Y-81421680D01*
X142870936Y-81421680D02*
X142897873Y-81502492D01*
X142897873Y-81502492D02*
X142978685Y-81637179D01*
X142978685Y-81637179D02*
X143059498Y-81717991D01*
X143059498Y-81717991D02*
X143194185Y-81798803D01*
X143194185Y-81798803D02*
X143274997Y-81825741D01*
X143274997Y-81825741D02*
X143382746Y-81825741D01*
X143382746Y-81825741D02*
X143490496Y-81771866D01*
X143490496Y-81771866D02*
X143544371Y-81717991D01*
X143544371Y-81717991D02*
X143598246Y-81610241D01*
X143598246Y-81610241D02*
X143598246Y-81556367D01*
X143598246Y-81556367D02*
X143409684Y-81367805D01*
X143409684Y-81367805D02*
X143301934Y-81475554D01*
X143894557Y-81367805D02*
X143328872Y-80802119D01*
X143328872Y-80802119D02*
X144217806Y-81044556D01*
X144217806Y-81044556D02*
X143652120Y-80478871D01*
X144487180Y-80775182D02*
X143921494Y-80209497D01*
X143921494Y-80209497D02*
X144056181Y-80074810D01*
X144056181Y-80074810D02*
X144163931Y-80020935D01*
X144163931Y-80020935D02*
X144271680Y-80020935D01*
X144271680Y-80020935D02*
X144352493Y-80047872D01*
X144352493Y-80047872D02*
X144487180Y-80128685D01*
X144487180Y-80128685D02*
X144567992Y-80209497D01*
X144567992Y-80209497D02*
X144648804Y-80344184D01*
X144648804Y-80344184D02*
X144675741Y-80424996D01*
X144675741Y-80424996D02*
X144675741Y-80532746D01*
X144675741Y-80532746D02*
X144621867Y-80640495D01*
X144621867Y-80640495D02*
X144487180Y-80775182D01*
X134904761Y-126524200D02*
X135019047Y-126562295D01*
X135019047Y-126562295D02*
X135209523Y-126562295D01*
X135209523Y-126562295D02*
X135285714Y-126524200D01*
X135285714Y-126524200D02*
X135323809Y-126486104D01*
X135323809Y-126486104D02*
X135361904Y-126409914D01*
X135361904Y-126409914D02*
X135361904Y-126333723D01*
X135361904Y-126333723D02*
X135323809Y-126257533D01*
X135323809Y-126257533D02*
X135285714Y-126219438D01*
X135285714Y-126219438D02*
X135209523Y-126181342D01*
X135209523Y-126181342D02*
X135057142Y-126143247D01*
X135057142Y-126143247D02*
X134980952Y-126105152D01*
X134980952Y-126105152D02*
X134942857Y-126067057D01*
X134942857Y-126067057D02*
X134904761Y-125990866D01*
X134904761Y-125990866D02*
X134904761Y-125914676D01*
X134904761Y-125914676D02*
X134942857Y-125838485D01*
X134942857Y-125838485D02*
X134980952Y-125800390D01*
X134980952Y-125800390D02*
X135057142Y-125762295D01*
X135057142Y-125762295D02*
X135247619Y-125762295D01*
X135247619Y-125762295D02*
X135361904Y-125800390D01*
X135628571Y-125762295D02*
X135819047Y-126562295D01*
X135819047Y-126562295D02*
X135971428Y-125990866D01*
X135971428Y-125990866D02*
X136123809Y-126562295D01*
X136123809Y-126562295D02*
X136314286Y-125762295D01*
X136619048Y-126562295D02*
X136619048Y-125762295D01*
X136619048Y-125762295D02*
X136809524Y-125762295D01*
X136809524Y-125762295D02*
X136923810Y-125800390D01*
X136923810Y-125800390D02*
X137000000Y-125876580D01*
X137000000Y-125876580D02*
X137038095Y-125952771D01*
X137038095Y-125952771D02*
X137076191Y-126105152D01*
X137076191Y-126105152D02*
X137076191Y-126219438D01*
X137076191Y-126219438D02*
X137038095Y-126371819D01*
X137038095Y-126371819D02*
X137000000Y-126448009D01*
X137000000Y-126448009D02*
X136923810Y-126524200D01*
X136923810Y-126524200D02*
X136809524Y-126562295D01*
X136809524Y-126562295D02*
X136619048Y-126562295D01*
X137419048Y-126562295D02*
X137419048Y-125762295D01*
X137952381Y-125762295D02*
X138104762Y-125762295D01*
X138104762Y-125762295D02*
X138180952Y-125800390D01*
X138180952Y-125800390D02*
X138257143Y-125876580D01*
X138257143Y-125876580D02*
X138295238Y-126028961D01*
X138295238Y-126028961D02*
X138295238Y-126295628D01*
X138295238Y-126295628D02*
X138257143Y-126448009D01*
X138257143Y-126448009D02*
X138180952Y-126524200D01*
X138180952Y-126524200D02*
X138104762Y-126562295D01*
X138104762Y-126562295D02*
X137952381Y-126562295D01*
X137952381Y-126562295D02*
X137876190Y-126524200D01*
X137876190Y-126524200D02*
X137800000Y-126448009D01*
X137800000Y-126448009D02*
X137761904Y-126295628D01*
X137761904Y-126295628D02*
X137761904Y-126028961D01*
X137761904Y-126028961D02*
X137800000Y-125876580D01*
X137800000Y-125876580D02*
X137876190Y-125800390D01*
X137876190Y-125800390D02*
X137952381Y-125762295D01*
X143838651Y-101943710D02*
X143380716Y-101862898D01*
X143515403Y-102266959D02*
X142949717Y-101701274D01*
X142949717Y-101701274D02*
X143165216Y-101485775D01*
X143165216Y-101485775D02*
X143246029Y-101458837D01*
X143246029Y-101458837D02*
X143299903Y-101458837D01*
X143299903Y-101458837D02*
X143380716Y-101485775D01*
X143380716Y-101485775D02*
X143461528Y-101566587D01*
X143461528Y-101566587D02*
X143488465Y-101647399D01*
X143488465Y-101647399D02*
X143488465Y-101701274D01*
X143488465Y-101701274D02*
X143461528Y-101782086D01*
X143461528Y-101782086D02*
X143246029Y-101997585D01*
X143515403Y-101135588D02*
X143973338Y-101593524D01*
X143973338Y-101593524D02*
X144054151Y-101620462D01*
X144054151Y-101620462D02*
X144108025Y-101620462D01*
X144108025Y-101620462D02*
X144188838Y-101593524D01*
X144188838Y-101593524D02*
X144296587Y-101485775D01*
X144296587Y-101485775D02*
X144323525Y-101404962D01*
X144323525Y-101404962D02*
X144323525Y-101351088D01*
X144323525Y-101351088D02*
X144296587Y-101270275D01*
X144296587Y-101270275D02*
X143838651Y-100812340D01*
X144673711Y-101108651D02*
X144108025Y-100542966D01*
X144108025Y-100542966D02*
X144996959Y-100785402D01*
X144996959Y-100785402D02*
X144431274Y-100219717D01*
X116843998Y-114360868D02*
X116763185Y-114387805D01*
X116763185Y-114387805D02*
X116682373Y-114468618D01*
X116682373Y-114468618D02*
X116628498Y-114576367D01*
X116628498Y-114576367D02*
X116628498Y-114684117D01*
X116628498Y-114684117D02*
X116655436Y-114764929D01*
X116655436Y-114764929D02*
X116736248Y-114899616D01*
X116736248Y-114899616D02*
X116817060Y-114980428D01*
X116817060Y-114980428D02*
X116951747Y-115061241D01*
X116951747Y-115061241D02*
X117032560Y-115088178D01*
X117032560Y-115088178D02*
X117140309Y-115088178D01*
X117140309Y-115088178D02*
X117248059Y-115034303D01*
X117248059Y-115034303D02*
X117301934Y-114980428D01*
X117301934Y-114980428D02*
X117355808Y-114872679D01*
X117355808Y-114872679D02*
X117355808Y-114818804D01*
X117355808Y-114818804D02*
X117167247Y-114630242D01*
X117167247Y-114630242D02*
X117059497Y-114737992D01*
X117652120Y-114630242D02*
X117086434Y-114064557D01*
X117086434Y-114064557D02*
X117301934Y-113849057D01*
X117301934Y-113849057D02*
X117382746Y-113822120D01*
X117382746Y-113822120D02*
X117436621Y-113822120D01*
X117436621Y-113822120D02*
X117517433Y-113849057D01*
X117517433Y-113849057D02*
X117598245Y-113929870D01*
X117598245Y-113929870D02*
X117625182Y-114010682D01*
X117625182Y-114010682D02*
X117625182Y-114064557D01*
X117625182Y-114064557D02*
X117598245Y-114145369D01*
X117598245Y-114145369D02*
X117382746Y-114360868D01*
X118514117Y-113768245D02*
X118190868Y-114091494D01*
X118352492Y-113929870D02*
X117786807Y-113364184D01*
X117786807Y-113364184D02*
X117813744Y-113498871D01*
X117813744Y-113498871D02*
X117813744Y-113606621D01*
X117813744Y-113606621D02*
X117786807Y-113687433D01*
X118217805Y-113040935D02*
X118217805Y-112987060D01*
X118217805Y-112987060D02*
X118244743Y-112906248D01*
X118244743Y-112906248D02*
X118379430Y-112771561D01*
X118379430Y-112771561D02*
X118460242Y-112744624D01*
X118460242Y-112744624D02*
X118514117Y-112744624D01*
X118514117Y-112744624D02*
X118594929Y-112771561D01*
X118594929Y-112771561D02*
X118648804Y-112825436D01*
X118648804Y-112825436D02*
X118702679Y-112933186D01*
X118702679Y-112933186D02*
X118702679Y-113579683D01*
X118702679Y-113579683D02*
X119052865Y-113229497D01*
X142922407Y-83958584D02*
X143272593Y-83608398D01*
X143272593Y-83608398D02*
X143299531Y-84012459D01*
X143299531Y-84012459D02*
X143380343Y-83931646D01*
X143380343Y-83931646D02*
X143461155Y-83904709D01*
X143461155Y-83904709D02*
X143515030Y-83904709D01*
X143515030Y-83904709D02*
X143595842Y-83931646D01*
X143595842Y-83931646D02*
X143730529Y-84066333D01*
X143730529Y-84066333D02*
X143757467Y-84147146D01*
X143757467Y-84147146D02*
X143757467Y-84201020D01*
X143757467Y-84201020D02*
X143730529Y-84281833D01*
X143730529Y-84281833D02*
X143568905Y-84443457D01*
X143568905Y-84443457D02*
X143488093Y-84470394D01*
X143488093Y-84470394D02*
X143434218Y-84470394D01*
X143434218Y-83446773D02*
X144188465Y-83823897D01*
X144188465Y-83823897D02*
X143811342Y-83069649D01*
X143946028Y-82934963D02*
X144296215Y-82584776D01*
X144296215Y-82584776D02*
X144323152Y-82988837D01*
X144323152Y-82988837D02*
X144403964Y-82908025D01*
X144403964Y-82908025D02*
X144484776Y-82881088D01*
X144484776Y-82881088D02*
X144538651Y-82881088D01*
X144538651Y-82881088D02*
X144619464Y-82908025D01*
X144619464Y-82908025D02*
X144754151Y-83042712D01*
X144754151Y-83042712D02*
X144781088Y-83123524D01*
X144781088Y-83123524D02*
X144781088Y-83177399D01*
X144781088Y-83177399D02*
X144754151Y-83258211D01*
X144754151Y-83258211D02*
X144592526Y-83419836D01*
X144592526Y-83419836D02*
X144511714Y-83446773D01*
X144511714Y-83446773D02*
X144457839Y-83446773D01*
X145023525Y-83096587D02*
X145454523Y-82665588D01*
X145239024Y-82180715D02*
X145427586Y-81992153D01*
X145804709Y-82207652D02*
X145535335Y-82477026D01*
X145535335Y-82477026D02*
X144969650Y-81911341D01*
X144969650Y-81911341D02*
X145239024Y-81641967D01*
X146047146Y-81965215D02*
X145481461Y-81399530D01*
X145481461Y-81399530D02*
X146370395Y-81641967D01*
X146370395Y-81641967D02*
X145804710Y-81076281D01*
X117513372Y-88691494D02*
X117432560Y-88718431D01*
X117432560Y-88718431D02*
X117351748Y-88799243D01*
X117351748Y-88799243D02*
X117297873Y-88906993D01*
X117297873Y-88906993D02*
X117297873Y-89014742D01*
X117297873Y-89014742D02*
X117324810Y-89095555D01*
X117324810Y-89095555D02*
X117405623Y-89230242D01*
X117405623Y-89230242D02*
X117486435Y-89311054D01*
X117486435Y-89311054D02*
X117621122Y-89391866D01*
X117621122Y-89391866D02*
X117701934Y-89418803D01*
X117701934Y-89418803D02*
X117809684Y-89418803D01*
X117809684Y-89418803D02*
X117917433Y-89364929D01*
X117917433Y-89364929D02*
X117971308Y-89311054D01*
X117971308Y-89311054D02*
X118025183Y-89203304D01*
X118025183Y-89203304D02*
X118025183Y-89149429D01*
X118025183Y-89149429D02*
X117836621Y-88960868D01*
X117836621Y-88960868D02*
X117728871Y-89068617D01*
X118321494Y-88960868D02*
X117755809Y-88395182D01*
X117755809Y-88395182D02*
X117971308Y-88179683D01*
X117971308Y-88179683D02*
X118052120Y-88152746D01*
X118052120Y-88152746D02*
X118105995Y-88152746D01*
X118105995Y-88152746D02*
X118186807Y-88179683D01*
X118186807Y-88179683D02*
X118267619Y-88260495D01*
X118267619Y-88260495D02*
X118294557Y-88341307D01*
X118294557Y-88341307D02*
X118294557Y-88395182D01*
X118294557Y-88395182D02*
X118267619Y-88475994D01*
X118267619Y-88475994D02*
X118052120Y-88691494D01*
X118752493Y-87775622D02*
X119129616Y-88152746D01*
X118402306Y-87694810D02*
X118671680Y-88233558D01*
X118671680Y-88233558D02*
X119021867Y-87883372D01*
X116989998Y-109280868D02*
X116909185Y-109307805D01*
X116909185Y-109307805D02*
X116828373Y-109388618D01*
X116828373Y-109388618D02*
X116774498Y-109496367D01*
X116774498Y-109496367D02*
X116774498Y-109604117D01*
X116774498Y-109604117D02*
X116801436Y-109684929D01*
X116801436Y-109684929D02*
X116882248Y-109819616D01*
X116882248Y-109819616D02*
X116963060Y-109900428D01*
X116963060Y-109900428D02*
X117097747Y-109981241D01*
X117097747Y-109981241D02*
X117178560Y-110008178D01*
X117178560Y-110008178D02*
X117286309Y-110008178D01*
X117286309Y-110008178D02*
X117394059Y-109954303D01*
X117394059Y-109954303D02*
X117447934Y-109900428D01*
X117447934Y-109900428D02*
X117501808Y-109792679D01*
X117501808Y-109792679D02*
X117501808Y-109738804D01*
X117501808Y-109738804D02*
X117313247Y-109550242D01*
X117313247Y-109550242D02*
X117205497Y-109657992D01*
X117798120Y-109550242D02*
X117232434Y-108984557D01*
X117232434Y-108984557D02*
X117447934Y-108769057D01*
X117447934Y-108769057D02*
X117528746Y-108742120D01*
X117528746Y-108742120D02*
X117582621Y-108742120D01*
X117582621Y-108742120D02*
X117663433Y-108769057D01*
X117663433Y-108769057D02*
X117744245Y-108849870D01*
X117744245Y-108849870D02*
X117771182Y-108930682D01*
X117771182Y-108930682D02*
X117771182Y-108984557D01*
X117771182Y-108984557D02*
X117744245Y-109065369D01*
X117744245Y-109065369D02*
X117528746Y-109280868D01*
X118660117Y-108688245D02*
X118336868Y-109011494D01*
X118498492Y-108849870D02*
X117932807Y-108284184D01*
X117932807Y-108284184D02*
X117959744Y-108418871D01*
X117959744Y-108418871D02*
X117959744Y-108526621D01*
X117959744Y-108526621D02*
X117932807Y-108607433D01*
X118444618Y-107772373D02*
X118498492Y-107718499D01*
X118498492Y-107718499D02*
X118579305Y-107691561D01*
X118579305Y-107691561D02*
X118633179Y-107691561D01*
X118633179Y-107691561D02*
X118713992Y-107718499D01*
X118713992Y-107718499D02*
X118848679Y-107799311D01*
X118848679Y-107799311D02*
X118983366Y-107933998D01*
X118983366Y-107933998D02*
X119064178Y-108068685D01*
X119064178Y-108068685D02*
X119091115Y-108149497D01*
X119091115Y-108149497D02*
X119091115Y-108203372D01*
X119091115Y-108203372D02*
X119064178Y-108284184D01*
X119064178Y-108284184D02*
X119010303Y-108338059D01*
X119010303Y-108338059D02*
X118929491Y-108364996D01*
X118929491Y-108364996D02*
X118875616Y-108364996D01*
X118875616Y-108364996D02*
X118794804Y-108338059D01*
X118794804Y-108338059D02*
X118660117Y-108257247D01*
X118660117Y-108257247D02*
X118525430Y-108122560D01*
X118525430Y-108122560D02*
X118444618Y-107987873D01*
X118444618Y-107987873D02*
X118417680Y-107907060D01*
X118417680Y-107907060D02*
X118417680Y-107853186D01*
X118417680Y-107853186D02*
X118444618Y-107772373D01*
X143155064Y-89534049D02*
X143424438Y-89264675D01*
X143262813Y-89749549D02*
X142885690Y-88995301D01*
X142885690Y-88995301D02*
X143639937Y-89372425D01*
X143828499Y-89183863D02*
X143262813Y-88618178D01*
X143262813Y-88618178D02*
X143397500Y-88483491D01*
X143397500Y-88483491D02*
X143505250Y-88429616D01*
X143505250Y-88429616D02*
X143612999Y-88429616D01*
X143612999Y-88429616D02*
X143693812Y-88456553D01*
X143693812Y-88456553D02*
X143828499Y-88537366D01*
X143828499Y-88537366D02*
X143909311Y-88618178D01*
X143909311Y-88618178D02*
X143990123Y-88752865D01*
X143990123Y-88752865D02*
X144017060Y-88833677D01*
X144017060Y-88833677D02*
X144017060Y-88941427D01*
X144017060Y-88941427D02*
X143963186Y-89049176D01*
X143963186Y-89049176D02*
X143828499Y-89183863D01*
X144663558Y-88241054D02*
X144663558Y-88294929D01*
X144663558Y-88294929D02*
X144609683Y-88402679D01*
X144609683Y-88402679D02*
X144555808Y-88456553D01*
X144555808Y-88456553D02*
X144448059Y-88510428D01*
X144448059Y-88510428D02*
X144340309Y-88510428D01*
X144340309Y-88510428D02*
X144259497Y-88483491D01*
X144259497Y-88483491D02*
X144124810Y-88402679D01*
X144124810Y-88402679D02*
X144043998Y-88321866D01*
X144043998Y-88321866D02*
X143963186Y-88187179D01*
X143963186Y-88187179D02*
X143936248Y-88106367D01*
X143936248Y-88106367D02*
X143936248Y-87998618D01*
X143936248Y-87998618D02*
X143990123Y-87890868D01*
X143990123Y-87890868D02*
X144043998Y-87836993D01*
X144043998Y-87836993D02*
X144151747Y-87783118D01*
X144151747Y-87783118D02*
X144205622Y-87783118D01*
X144879057Y-88241054D02*
X145310056Y-87810056D01*
X144744370Y-87136621D02*
X145498618Y-87513744D01*
X145498618Y-87513744D02*
X145121494Y-86759497D01*
X146198990Y-86813372D02*
X145741054Y-86732560D01*
X145875741Y-87136621D02*
X145310056Y-86570935D01*
X145310056Y-86570935D02*
X145525555Y-86355436D01*
X145525555Y-86355436D02*
X145606367Y-86328499D01*
X145606367Y-86328499D02*
X145660242Y-86328499D01*
X145660242Y-86328499D02*
X145741054Y-86355436D01*
X145741054Y-86355436D02*
X145821866Y-86436248D01*
X145821866Y-86436248D02*
X145848804Y-86517061D01*
X145848804Y-86517061D02*
X145848804Y-86570935D01*
X145848804Y-86570935D02*
X145821866Y-86651748D01*
X145821866Y-86651748D02*
X145606367Y-86867247D01*
X146145115Y-86274624D02*
X146333677Y-86086062D01*
X146710800Y-86301561D02*
X146441426Y-86570935D01*
X146441426Y-86570935D02*
X145875741Y-86005250D01*
X145875741Y-86005250D02*
X146145115Y-85735876D01*
X146845488Y-85574251D02*
X146656926Y-85762813D01*
X146953237Y-86059125D02*
X146387552Y-85493439D01*
X146387552Y-85493439D02*
X146656926Y-85224065D01*
X117513372Y-91231494D02*
X117432560Y-91258431D01*
X117432560Y-91258431D02*
X117351748Y-91339243D01*
X117351748Y-91339243D02*
X117297873Y-91446993D01*
X117297873Y-91446993D02*
X117297873Y-91554742D01*
X117297873Y-91554742D02*
X117324810Y-91635555D01*
X117324810Y-91635555D02*
X117405623Y-91770242D01*
X117405623Y-91770242D02*
X117486435Y-91851054D01*
X117486435Y-91851054D02*
X117621122Y-91931866D01*
X117621122Y-91931866D02*
X117701934Y-91958803D01*
X117701934Y-91958803D02*
X117809684Y-91958803D01*
X117809684Y-91958803D02*
X117917433Y-91904929D01*
X117917433Y-91904929D02*
X117971308Y-91851054D01*
X117971308Y-91851054D02*
X118025183Y-91743304D01*
X118025183Y-91743304D02*
X118025183Y-91689429D01*
X118025183Y-91689429D02*
X117836621Y-91500868D01*
X117836621Y-91500868D02*
X117728871Y-91608617D01*
X118321494Y-91500868D02*
X117755809Y-90935182D01*
X117755809Y-90935182D02*
X117971308Y-90719683D01*
X117971308Y-90719683D02*
X118052120Y-90692746D01*
X118052120Y-90692746D02*
X118105995Y-90692746D01*
X118105995Y-90692746D02*
X118186807Y-90719683D01*
X118186807Y-90719683D02*
X118267619Y-90800495D01*
X118267619Y-90800495D02*
X118294557Y-90881307D01*
X118294557Y-90881307D02*
X118294557Y-90935182D01*
X118294557Y-90935182D02*
X118267619Y-91015994D01*
X118267619Y-91015994D02*
X118052120Y-91231494D01*
X118590868Y-90100123D02*
X118321494Y-90369497D01*
X118321494Y-90369497D02*
X118563931Y-90665808D01*
X118563931Y-90665808D02*
X118563931Y-90611933D01*
X118563931Y-90611933D02*
X118590868Y-90531121D01*
X118590868Y-90531121D02*
X118725555Y-90396434D01*
X118725555Y-90396434D02*
X118806367Y-90369497D01*
X118806367Y-90369497D02*
X118860242Y-90369497D01*
X118860242Y-90369497D02*
X118941054Y-90396434D01*
X118941054Y-90396434D02*
X119075741Y-90531121D01*
X119075741Y-90531121D02*
X119102679Y-90611933D01*
X119102679Y-90611933D02*
X119102679Y-90665808D01*
X119102679Y-90665808D02*
X119075741Y-90746620D01*
X119075741Y-90746620D02*
X118941054Y-90881307D01*
X118941054Y-90881307D02*
X118860242Y-90908245D01*
X118860242Y-90908245D02*
X118806367Y-90908245D01*
X117513372Y-96311494D02*
X117432560Y-96338431D01*
X117432560Y-96338431D02*
X117351748Y-96419243D01*
X117351748Y-96419243D02*
X117297873Y-96526993D01*
X117297873Y-96526993D02*
X117297873Y-96634742D01*
X117297873Y-96634742D02*
X117324810Y-96715555D01*
X117324810Y-96715555D02*
X117405623Y-96850242D01*
X117405623Y-96850242D02*
X117486435Y-96931054D01*
X117486435Y-96931054D02*
X117621122Y-97011866D01*
X117621122Y-97011866D02*
X117701934Y-97038803D01*
X117701934Y-97038803D02*
X117809684Y-97038803D01*
X117809684Y-97038803D02*
X117917433Y-96984929D01*
X117917433Y-96984929D02*
X117971308Y-96931054D01*
X117971308Y-96931054D02*
X118025183Y-96823304D01*
X118025183Y-96823304D02*
X118025183Y-96769429D01*
X118025183Y-96769429D02*
X117836621Y-96580868D01*
X117836621Y-96580868D02*
X117728871Y-96688617D01*
X118321494Y-96580868D02*
X117755809Y-96015182D01*
X117755809Y-96015182D02*
X117971308Y-95799683D01*
X117971308Y-95799683D02*
X118052120Y-95772746D01*
X118052120Y-95772746D02*
X118105995Y-95772746D01*
X118105995Y-95772746D02*
X118186807Y-95799683D01*
X118186807Y-95799683D02*
X118267619Y-95880495D01*
X118267619Y-95880495D02*
X118294557Y-95961307D01*
X118294557Y-95961307D02*
X118294557Y-96015182D01*
X118294557Y-96015182D02*
X118267619Y-96095994D01*
X118267619Y-96095994D02*
X118052120Y-96311494D01*
X118563931Y-95207060D02*
X118456181Y-95314810D01*
X118456181Y-95314810D02*
X118429244Y-95395622D01*
X118429244Y-95395622D02*
X118429244Y-95449497D01*
X118429244Y-95449497D02*
X118456181Y-95584184D01*
X118456181Y-95584184D02*
X118536993Y-95718871D01*
X118536993Y-95718871D02*
X118752493Y-95934370D01*
X118752493Y-95934370D02*
X118833305Y-95961307D01*
X118833305Y-95961307D02*
X118887180Y-95961307D01*
X118887180Y-95961307D02*
X118967992Y-95934370D01*
X118967992Y-95934370D02*
X119075741Y-95826620D01*
X119075741Y-95826620D02*
X119102679Y-95745808D01*
X119102679Y-95745808D02*
X119102679Y-95691933D01*
X119102679Y-95691933D02*
X119075741Y-95611121D01*
X119075741Y-95611121D02*
X118941054Y-95476434D01*
X118941054Y-95476434D02*
X118860242Y-95449497D01*
X118860242Y-95449497D02*
X118806367Y-95449497D01*
X118806367Y-95449497D02*
X118725555Y-95476434D01*
X118725555Y-95476434D02*
X118617806Y-95584184D01*
X118617806Y-95584184D02*
X118590868Y-95664996D01*
X118590868Y-95664996D02*
X118590868Y-95718871D01*
X118590868Y-95718871D02*
X118617806Y-95799683D01*
X123490475Y-126524200D02*
X123604761Y-126562295D01*
X123604761Y-126562295D02*
X123795237Y-126562295D01*
X123795237Y-126562295D02*
X123871428Y-126524200D01*
X123871428Y-126524200D02*
X123909523Y-126486104D01*
X123909523Y-126486104D02*
X123947618Y-126409914D01*
X123947618Y-126409914D02*
X123947618Y-126333723D01*
X123947618Y-126333723D02*
X123909523Y-126257533D01*
X123909523Y-126257533D02*
X123871428Y-126219438D01*
X123871428Y-126219438D02*
X123795237Y-126181342D01*
X123795237Y-126181342D02*
X123642856Y-126143247D01*
X123642856Y-126143247D02*
X123566666Y-126105152D01*
X123566666Y-126105152D02*
X123528571Y-126067057D01*
X123528571Y-126067057D02*
X123490475Y-125990866D01*
X123490475Y-125990866D02*
X123490475Y-125914676D01*
X123490475Y-125914676D02*
X123528571Y-125838485D01*
X123528571Y-125838485D02*
X123566666Y-125800390D01*
X123566666Y-125800390D02*
X123642856Y-125762295D01*
X123642856Y-125762295D02*
X123833333Y-125762295D01*
X123833333Y-125762295D02*
X123947618Y-125800390D01*
X124214285Y-125762295D02*
X124404761Y-126562295D01*
X124404761Y-126562295D02*
X124557142Y-125990866D01*
X124557142Y-125990866D02*
X124709523Y-126562295D01*
X124709523Y-126562295D02*
X124900000Y-125762295D01*
X125661905Y-126486104D02*
X125623809Y-126524200D01*
X125623809Y-126524200D02*
X125509524Y-126562295D01*
X125509524Y-126562295D02*
X125433333Y-126562295D01*
X125433333Y-126562295D02*
X125319047Y-126524200D01*
X125319047Y-126524200D02*
X125242857Y-126448009D01*
X125242857Y-126448009D02*
X125204762Y-126371819D01*
X125204762Y-126371819D02*
X125166666Y-126219438D01*
X125166666Y-126219438D02*
X125166666Y-126105152D01*
X125166666Y-126105152D02*
X125204762Y-125952771D01*
X125204762Y-125952771D02*
X125242857Y-125876580D01*
X125242857Y-125876580D02*
X125319047Y-125800390D01*
X125319047Y-125800390D02*
X125433333Y-125762295D01*
X125433333Y-125762295D02*
X125509524Y-125762295D01*
X125509524Y-125762295D02*
X125623809Y-125800390D01*
X125623809Y-125800390D02*
X125661905Y-125838485D01*
X126385714Y-126562295D02*
X126004762Y-126562295D01*
X126004762Y-126562295D02*
X126004762Y-125762295D01*
X126652381Y-126562295D02*
X126652381Y-125762295D01*
X127109524Y-126562295D02*
X126766666Y-126105152D01*
X127109524Y-125762295D02*
X126652381Y-126219438D01*
X117486435Y-81098431D02*
X117405623Y-81125368D01*
X117405623Y-81125368D02*
X117324811Y-81206180D01*
X117324811Y-81206180D02*
X117270936Y-81313930D01*
X117270936Y-81313930D02*
X117270936Y-81421680D01*
X117270936Y-81421680D02*
X117297873Y-81502492D01*
X117297873Y-81502492D02*
X117378685Y-81637179D01*
X117378685Y-81637179D02*
X117459498Y-81717991D01*
X117459498Y-81717991D02*
X117594185Y-81798803D01*
X117594185Y-81798803D02*
X117674997Y-81825741D01*
X117674997Y-81825741D02*
X117782746Y-81825741D01*
X117782746Y-81825741D02*
X117890496Y-81771866D01*
X117890496Y-81771866D02*
X117944371Y-81717991D01*
X117944371Y-81717991D02*
X117998246Y-81610241D01*
X117998246Y-81610241D02*
X117998246Y-81556367D01*
X117998246Y-81556367D02*
X117809684Y-81367805D01*
X117809684Y-81367805D02*
X117701934Y-81475554D01*
X118294557Y-81367805D02*
X117728872Y-80802119D01*
X117728872Y-80802119D02*
X118617806Y-81044556D01*
X118617806Y-81044556D02*
X118052120Y-80478871D01*
X118887180Y-80775182D02*
X118321494Y-80209497D01*
X118321494Y-80209497D02*
X118456181Y-80074810D01*
X118456181Y-80074810D02*
X118563931Y-80020935D01*
X118563931Y-80020935D02*
X118671680Y-80020935D01*
X118671680Y-80020935D02*
X118752493Y-80047872D01*
X118752493Y-80047872D02*
X118887180Y-80128685D01*
X118887180Y-80128685D02*
X118967992Y-80209497D01*
X118967992Y-80209497D02*
X119048804Y-80344184D01*
X119048804Y-80344184D02*
X119075741Y-80424996D01*
X119075741Y-80424996D02*
X119075741Y-80532746D01*
X119075741Y-80532746D02*
X119021867Y-80640495D01*
X119021867Y-80640495D02*
X118887180Y-80775182D01*
X116989998Y-124520868D02*
X116909185Y-124547805D01*
X116909185Y-124547805D02*
X116828373Y-124628618D01*
X116828373Y-124628618D02*
X116774498Y-124736367D01*
X116774498Y-124736367D02*
X116774498Y-124844117D01*
X116774498Y-124844117D02*
X116801436Y-124924929D01*
X116801436Y-124924929D02*
X116882248Y-125059616D01*
X116882248Y-125059616D02*
X116963060Y-125140428D01*
X116963060Y-125140428D02*
X117097747Y-125221241D01*
X117097747Y-125221241D02*
X117178560Y-125248178D01*
X117178560Y-125248178D02*
X117286309Y-125248178D01*
X117286309Y-125248178D02*
X117394059Y-125194303D01*
X117394059Y-125194303D02*
X117447934Y-125140428D01*
X117447934Y-125140428D02*
X117501808Y-125032679D01*
X117501808Y-125032679D02*
X117501808Y-124978804D01*
X117501808Y-124978804D02*
X117313247Y-124790242D01*
X117313247Y-124790242D02*
X117205497Y-124897992D01*
X117798120Y-124790242D02*
X117232434Y-124224557D01*
X117232434Y-124224557D02*
X117447934Y-124009057D01*
X117447934Y-124009057D02*
X117528746Y-123982120D01*
X117528746Y-123982120D02*
X117582621Y-123982120D01*
X117582621Y-123982120D02*
X117663433Y-124009057D01*
X117663433Y-124009057D02*
X117744245Y-124089870D01*
X117744245Y-124089870D02*
X117771182Y-124170682D01*
X117771182Y-124170682D02*
X117771182Y-124224557D01*
X117771182Y-124224557D02*
X117744245Y-124305369D01*
X117744245Y-124305369D02*
X117528746Y-124520868D01*
X118660117Y-123928245D02*
X118336868Y-124251494D01*
X118498492Y-124089870D02*
X117932807Y-123524184D01*
X117932807Y-123524184D02*
X117959744Y-123658871D01*
X117959744Y-123658871D02*
X117959744Y-123766621D01*
X117959744Y-123766621D02*
X117932807Y-123847433D01*
X118606242Y-122850749D02*
X118336868Y-123120123D01*
X118336868Y-123120123D02*
X118579305Y-123416434D01*
X118579305Y-123416434D02*
X118579305Y-123362560D01*
X118579305Y-123362560D02*
X118606242Y-123281747D01*
X118606242Y-123281747D02*
X118740929Y-123147060D01*
X118740929Y-123147060D02*
X118821741Y-123120123D01*
X118821741Y-123120123D02*
X118875616Y-123120123D01*
X118875616Y-123120123D02*
X118956428Y-123147060D01*
X118956428Y-123147060D02*
X119091115Y-123281747D01*
X119091115Y-123281747D02*
X119118053Y-123362560D01*
X119118053Y-123362560D02*
X119118053Y-123416434D01*
X119118053Y-123416434D02*
X119091115Y-123497247D01*
X119091115Y-123497247D02*
X118956428Y-123631934D01*
X118956428Y-123631934D02*
X118875616Y-123658871D01*
X118875616Y-123658871D02*
X118821741Y-123658871D01*
X143097998Y-109290868D02*
X143017185Y-109317805D01*
X143017185Y-109317805D02*
X142936373Y-109398618D01*
X142936373Y-109398618D02*
X142882498Y-109506367D01*
X142882498Y-109506367D02*
X142882498Y-109614117D01*
X142882498Y-109614117D02*
X142909436Y-109694929D01*
X142909436Y-109694929D02*
X142990248Y-109829616D01*
X142990248Y-109829616D02*
X143071060Y-109910428D01*
X143071060Y-109910428D02*
X143205747Y-109991241D01*
X143205747Y-109991241D02*
X143286560Y-110018178D01*
X143286560Y-110018178D02*
X143394309Y-110018178D01*
X143394309Y-110018178D02*
X143502059Y-109964303D01*
X143502059Y-109964303D02*
X143555934Y-109910428D01*
X143555934Y-109910428D02*
X143609808Y-109802679D01*
X143609808Y-109802679D02*
X143609808Y-109748804D01*
X143609808Y-109748804D02*
X143421247Y-109560242D01*
X143421247Y-109560242D02*
X143313497Y-109667992D01*
X143906120Y-109560242D02*
X143340434Y-108994557D01*
X143340434Y-108994557D02*
X143555934Y-108779057D01*
X143555934Y-108779057D02*
X143636746Y-108752120D01*
X143636746Y-108752120D02*
X143690621Y-108752120D01*
X143690621Y-108752120D02*
X143771433Y-108779057D01*
X143771433Y-108779057D02*
X143852245Y-108859870D01*
X143852245Y-108859870D02*
X143879182Y-108940682D01*
X143879182Y-108940682D02*
X143879182Y-108994557D01*
X143879182Y-108994557D02*
X143852245Y-109075369D01*
X143852245Y-109075369D02*
X143636746Y-109290868D01*
X143933057Y-108509683D02*
X143933057Y-108455809D01*
X143933057Y-108455809D02*
X143959995Y-108374996D01*
X143959995Y-108374996D02*
X144094682Y-108240309D01*
X144094682Y-108240309D02*
X144175494Y-108213372D01*
X144175494Y-108213372D02*
X144229369Y-108213372D01*
X144229369Y-108213372D02*
X144310181Y-108240309D01*
X144310181Y-108240309D02*
X144364056Y-108294184D01*
X144364056Y-108294184D02*
X144417930Y-108401934D01*
X144417930Y-108401934D02*
X144417930Y-109048431D01*
X144417930Y-109048431D02*
X144768117Y-108698245D01*
X145306865Y-108159497D02*
X144983616Y-108482746D01*
X145145240Y-108321121D02*
X144579555Y-107755436D01*
X144579555Y-107755436D02*
X144606492Y-107890123D01*
X144606492Y-107890123D02*
X144606492Y-107997873D01*
X144606492Y-107997873D02*
X144579555Y-108078685D01*
X117613372Y-98821494D02*
X117532560Y-98848431D01*
X117532560Y-98848431D02*
X117451748Y-98929243D01*
X117451748Y-98929243D02*
X117397873Y-99036993D01*
X117397873Y-99036993D02*
X117397873Y-99144742D01*
X117397873Y-99144742D02*
X117424810Y-99225555D01*
X117424810Y-99225555D02*
X117505623Y-99360242D01*
X117505623Y-99360242D02*
X117586435Y-99441054D01*
X117586435Y-99441054D02*
X117721122Y-99521866D01*
X117721122Y-99521866D02*
X117801934Y-99548803D01*
X117801934Y-99548803D02*
X117909684Y-99548803D01*
X117909684Y-99548803D02*
X118017433Y-99494929D01*
X118017433Y-99494929D02*
X118071308Y-99441054D01*
X118071308Y-99441054D02*
X118125183Y-99333304D01*
X118125183Y-99333304D02*
X118125183Y-99279429D01*
X118125183Y-99279429D02*
X117936621Y-99090868D01*
X117936621Y-99090868D02*
X117828871Y-99198617D01*
X118421494Y-99090868D02*
X117855809Y-98525182D01*
X117855809Y-98525182D02*
X118071308Y-98309683D01*
X118071308Y-98309683D02*
X118152120Y-98282746D01*
X118152120Y-98282746D02*
X118205995Y-98282746D01*
X118205995Y-98282746D02*
X118286807Y-98309683D01*
X118286807Y-98309683D02*
X118367619Y-98390495D01*
X118367619Y-98390495D02*
X118394557Y-98471307D01*
X118394557Y-98471307D02*
X118394557Y-98525182D01*
X118394557Y-98525182D02*
X118367619Y-98605994D01*
X118367619Y-98605994D02*
X118152120Y-98821494D01*
X118367619Y-98013372D02*
X118744743Y-97636248D01*
X118744743Y-97636248D02*
X119067992Y-98444370D01*
X143097998Y-91246868D02*
X143017185Y-91273805D01*
X143017185Y-91273805D02*
X142936373Y-91354618D01*
X142936373Y-91354618D02*
X142882498Y-91462367D01*
X142882498Y-91462367D02*
X142882498Y-91570117D01*
X142882498Y-91570117D02*
X142909436Y-91650929D01*
X142909436Y-91650929D02*
X142990248Y-91785616D01*
X142990248Y-91785616D02*
X143071060Y-91866428D01*
X143071060Y-91866428D02*
X143205747Y-91947241D01*
X143205747Y-91947241D02*
X143286560Y-91974178D01*
X143286560Y-91974178D02*
X143394309Y-91974178D01*
X143394309Y-91974178D02*
X143502059Y-91920303D01*
X143502059Y-91920303D02*
X143555934Y-91866428D01*
X143555934Y-91866428D02*
X143609808Y-91758679D01*
X143609808Y-91758679D02*
X143609808Y-91704804D01*
X143609808Y-91704804D02*
X143421247Y-91516242D01*
X143421247Y-91516242D02*
X143313497Y-91623992D01*
X143906120Y-91516242D02*
X143340434Y-90950557D01*
X143340434Y-90950557D02*
X143555934Y-90735057D01*
X143555934Y-90735057D02*
X143636746Y-90708120D01*
X143636746Y-90708120D02*
X143690621Y-90708120D01*
X143690621Y-90708120D02*
X143771433Y-90735057D01*
X143771433Y-90735057D02*
X143852245Y-90815870D01*
X143852245Y-90815870D02*
X143879182Y-90896682D01*
X143879182Y-90896682D02*
X143879182Y-90950557D01*
X143879182Y-90950557D02*
X143852245Y-91031369D01*
X143852245Y-91031369D02*
X143636746Y-91246868D01*
X143933057Y-90465683D02*
X143933057Y-90411809D01*
X143933057Y-90411809D02*
X143959995Y-90330996D01*
X143959995Y-90330996D02*
X144094682Y-90196309D01*
X144094682Y-90196309D02*
X144175494Y-90169372D01*
X144175494Y-90169372D02*
X144229369Y-90169372D01*
X144229369Y-90169372D02*
X144310181Y-90196309D01*
X144310181Y-90196309D02*
X144364056Y-90250184D01*
X144364056Y-90250184D02*
X144417930Y-90357934D01*
X144417930Y-90357934D02*
X144417930Y-91004431D01*
X144417930Y-91004431D02*
X144768117Y-90654245D01*
X144768117Y-90007747D02*
X144687305Y-90034685D01*
X144687305Y-90034685D02*
X144633430Y-90034685D01*
X144633430Y-90034685D02*
X144552618Y-90007747D01*
X144552618Y-90007747D02*
X144525680Y-89980810D01*
X144525680Y-89980810D02*
X144498743Y-89899998D01*
X144498743Y-89899998D02*
X144498743Y-89846123D01*
X144498743Y-89846123D02*
X144525680Y-89765311D01*
X144525680Y-89765311D02*
X144633430Y-89657561D01*
X144633430Y-89657561D02*
X144714242Y-89630624D01*
X144714242Y-89630624D02*
X144768117Y-89630624D01*
X144768117Y-89630624D02*
X144848929Y-89657561D01*
X144848929Y-89657561D02*
X144875866Y-89684499D01*
X144875866Y-89684499D02*
X144902804Y-89765311D01*
X144902804Y-89765311D02*
X144902804Y-89819186D01*
X144902804Y-89819186D02*
X144875866Y-89899998D01*
X144875866Y-89899998D02*
X144768117Y-90007747D01*
X144768117Y-90007747D02*
X144741179Y-90088560D01*
X144741179Y-90088560D02*
X144741179Y-90142434D01*
X144741179Y-90142434D02*
X144768117Y-90223247D01*
X144768117Y-90223247D02*
X144875866Y-90330996D01*
X144875866Y-90330996D02*
X144956679Y-90357934D01*
X144956679Y-90357934D02*
X145010553Y-90357934D01*
X145010553Y-90357934D02*
X145091366Y-90330996D01*
X145091366Y-90330996D02*
X145199115Y-90223247D01*
X145199115Y-90223247D02*
X145226053Y-90142434D01*
X145226053Y-90142434D02*
X145226053Y-90088560D01*
X145226053Y-90088560D02*
X145199115Y-90007747D01*
X145199115Y-90007747D02*
X145091366Y-89899998D01*
X145091366Y-89899998D02*
X145010553Y-89873060D01*
X145010553Y-89873060D02*
X144956679Y-89873060D01*
X144956679Y-89873060D02*
X144875866Y-89899998D01*
X143097998Y-124520868D02*
X143017185Y-124547805D01*
X143017185Y-124547805D02*
X142936373Y-124628618D01*
X142936373Y-124628618D02*
X142882498Y-124736367D01*
X142882498Y-124736367D02*
X142882498Y-124844117D01*
X142882498Y-124844117D02*
X142909436Y-124924929D01*
X142909436Y-124924929D02*
X142990248Y-125059616D01*
X142990248Y-125059616D02*
X143071060Y-125140428D01*
X143071060Y-125140428D02*
X143205747Y-125221241D01*
X143205747Y-125221241D02*
X143286560Y-125248178D01*
X143286560Y-125248178D02*
X143394309Y-125248178D01*
X143394309Y-125248178D02*
X143502059Y-125194303D01*
X143502059Y-125194303D02*
X143555934Y-125140428D01*
X143555934Y-125140428D02*
X143609808Y-125032679D01*
X143609808Y-125032679D02*
X143609808Y-124978804D01*
X143609808Y-124978804D02*
X143421247Y-124790242D01*
X143421247Y-124790242D02*
X143313497Y-124897992D01*
X143906120Y-124790242D02*
X143340434Y-124224557D01*
X143340434Y-124224557D02*
X143555934Y-124009057D01*
X143555934Y-124009057D02*
X143636746Y-123982120D01*
X143636746Y-123982120D02*
X143690621Y-123982120D01*
X143690621Y-123982120D02*
X143771433Y-124009057D01*
X143771433Y-124009057D02*
X143852245Y-124089870D01*
X143852245Y-124089870D02*
X143879182Y-124170682D01*
X143879182Y-124170682D02*
X143879182Y-124224557D01*
X143879182Y-124224557D02*
X143852245Y-124305369D01*
X143852245Y-124305369D02*
X143636746Y-124520868D01*
X144768117Y-123928245D02*
X144444868Y-124251494D01*
X144606492Y-124089870D02*
X144040807Y-123524184D01*
X144040807Y-123524184D02*
X144067744Y-123658871D01*
X144067744Y-123658871D02*
X144067744Y-123766621D01*
X144067744Y-123766621D02*
X144040807Y-123847433D01*
X144687305Y-122877686D02*
X144579555Y-122985436D01*
X144579555Y-122985436D02*
X144552618Y-123066248D01*
X144552618Y-123066248D02*
X144552618Y-123120123D01*
X144552618Y-123120123D02*
X144579555Y-123254810D01*
X144579555Y-123254810D02*
X144660367Y-123389497D01*
X144660367Y-123389497D02*
X144875866Y-123604996D01*
X144875866Y-123604996D02*
X144956679Y-123631934D01*
X144956679Y-123631934D02*
X145010553Y-123631934D01*
X145010553Y-123631934D02*
X145091366Y-123604996D01*
X145091366Y-123604996D02*
X145199115Y-123497247D01*
X145199115Y-123497247D02*
X145226053Y-123416434D01*
X145226053Y-123416434D02*
X145226053Y-123362560D01*
X145226053Y-123362560D02*
X145199115Y-123281747D01*
X145199115Y-123281747D02*
X145064428Y-123147060D01*
X145064428Y-123147060D02*
X144983616Y-123120123D01*
X144983616Y-123120123D02*
X144929741Y-123120123D01*
X144929741Y-123120123D02*
X144848929Y-123147060D01*
X144848929Y-123147060D02*
X144741179Y-123254810D01*
X144741179Y-123254810D02*
X144714242Y-123335622D01*
X144714242Y-123335622D02*
X144714242Y-123389497D01*
X144714242Y-123389497D02*
X144741179Y-123470309D01*
X143086435Y-119198431D02*
X143005623Y-119225368D01*
X143005623Y-119225368D02*
X142924811Y-119306180D01*
X142924811Y-119306180D02*
X142870936Y-119413930D01*
X142870936Y-119413930D02*
X142870936Y-119521680D01*
X142870936Y-119521680D02*
X142897873Y-119602492D01*
X142897873Y-119602492D02*
X142978685Y-119737179D01*
X142978685Y-119737179D02*
X143059498Y-119817991D01*
X143059498Y-119817991D02*
X143194185Y-119898803D01*
X143194185Y-119898803D02*
X143274997Y-119925741D01*
X143274997Y-119925741D02*
X143382746Y-119925741D01*
X143382746Y-119925741D02*
X143490496Y-119871866D01*
X143490496Y-119871866D02*
X143544371Y-119817991D01*
X143544371Y-119817991D02*
X143598246Y-119710241D01*
X143598246Y-119710241D02*
X143598246Y-119656367D01*
X143598246Y-119656367D02*
X143409684Y-119467805D01*
X143409684Y-119467805D02*
X143301934Y-119575554D01*
X143894557Y-119467805D02*
X143328872Y-118902119D01*
X143328872Y-118902119D02*
X144217806Y-119144556D01*
X144217806Y-119144556D02*
X143652120Y-118578871D01*
X144487180Y-118875182D02*
X143921494Y-118309497D01*
X143921494Y-118309497D02*
X144056181Y-118174810D01*
X144056181Y-118174810D02*
X144163931Y-118120935D01*
X144163931Y-118120935D02*
X144271680Y-118120935D01*
X144271680Y-118120935D02*
X144352493Y-118147872D01*
X144352493Y-118147872D02*
X144487180Y-118228685D01*
X144487180Y-118228685D02*
X144567992Y-118309497D01*
X144567992Y-118309497D02*
X144648804Y-118444184D01*
X144648804Y-118444184D02*
X144675741Y-118524996D01*
X144675741Y-118524996D02*
X144675741Y-118632746D01*
X144675741Y-118632746D02*
X144621867Y-118740495D01*
X144621867Y-118740495D02*
X144487180Y-118875182D01*
X117513372Y-86151494D02*
X117432560Y-86178431D01*
X117432560Y-86178431D02*
X117351748Y-86259243D01*
X117351748Y-86259243D02*
X117297873Y-86366993D01*
X117297873Y-86366993D02*
X117297873Y-86474742D01*
X117297873Y-86474742D02*
X117324810Y-86555555D01*
X117324810Y-86555555D02*
X117405623Y-86690242D01*
X117405623Y-86690242D02*
X117486435Y-86771054D01*
X117486435Y-86771054D02*
X117621122Y-86851866D01*
X117621122Y-86851866D02*
X117701934Y-86878803D01*
X117701934Y-86878803D02*
X117809684Y-86878803D01*
X117809684Y-86878803D02*
X117917433Y-86824929D01*
X117917433Y-86824929D02*
X117971308Y-86771054D01*
X117971308Y-86771054D02*
X118025183Y-86663304D01*
X118025183Y-86663304D02*
X118025183Y-86609429D01*
X118025183Y-86609429D02*
X117836621Y-86420868D01*
X117836621Y-86420868D02*
X117728871Y-86528617D01*
X118321494Y-86420868D02*
X117755809Y-85855182D01*
X117755809Y-85855182D02*
X117971308Y-85639683D01*
X117971308Y-85639683D02*
X118052120Y-85612746D01*
X118052120Y-85612746D02*
X118105995Y-85612746D01*
X118105995Y-85612746D02*
X118186807Y-85639683D01*
X118186807Y-85639683D02*
X118267619Y-85720495D01*
X118267619Y-85720495D02*
X118294557Y-85801307D01*
X118294557Y-85801307D02*
X118294557Y-85855182D01*
X118294557Y-85855182D02*
X118267619Y-85935994D01*
X118267619Y-85935994D02*
X118052120Y-86151494D01*
X118267619Y-85343372D02*
X118617806Y-84993185D01*
X118617806Y-84993185D02*
X118644743Y-85397246D01*
X118644743Y-85397246D02*
X118725555Y-85316434D01*
X118725555Y-85316434D02*
X118806367Y-85289497D01*
X118806367Y-85289497D02*
X118860242Y-85289497D01*
X118860242Y-85289497D02*
X118941054Y-85316434D01*
X118941054Y-85316434D02*
X119075741Y-85451121D01*
X119075741Y-85451121D02*
X119102679Y-85531933D01*
X119102679Y-85531933D02*
X119102679Y-85585808D01*
X119102679Y-85585808D02*
X119075741Y-85666620D01*
X119075741Y-85666620D02*
X118914117Y-85828245D01*
X118914117Y-85828245D02*
X118833305Y-85855182D01*
X118833305Y-85855182D02*
X118779430Y-85855182D01*
X143151873Y-94741240D02*
X143421247Y-94471866D01*
X143259623Y-94956739D02*
X142882499Y-94202492D01*
X142882499Y-94202492D02*
X143636746Y-94579615D01*
X143582871Y-93555994D02*
X143502059Y-93582932D01*
X143502059Y-93582932D02*
X143421247Y-93663744D01*
X143421247Y-93663744D02*
X143367372Y-93771494D01*
X143367372Y-93771494D02*
X143367372Y-93879243D01*
X143367372Y-93879243D02*
X143394310Y-93960055D01*
X143394310Y-93960055D02*
X143475122Y-94094742D01*
X143475122Y-94094742D02*
X143555934Y-94175555D01*
X143555934Y-94175555D02*
X143690621Y-94256367D01*
X143690621Y-94256367D02*
X143771433Y-94283304D01*
X143771433Y-94283304D02*
X143879183Y-94283304D01*
X143879183Y-94283304D02*
X143986932Y-94229429D01*
X143986932Y-94229429D02*
X144040807Y-94175555D01*
X144040807Y-94175555D02*
X144094682Y-94067805D01*
X144094682Y-94067805D02*
X144094682Y-94013930D01*
X144094682Y-94013930D02*
X143906120Y-93825368D01*
X143906120Y-93825368D02*
X143798371Y-93933118D01*
X144390993Y-93825368D02*
X143825308Y-93259683D01*
X143825308Y-93259683D02*
X144714242Y-93502120D01*
X144714242Y-93502120D02*
X144148557Y-92936434D01*
X144983616Y-93232746D02*
X144417931Y-92667060D01*
X144417931Y-92667060D02*
X144552618Y-92532373D01*
X144552618Y-92532373D02*
X144660367Y-92478498D01*
X144660367Y-92478498D02*
X144768117Y-92478498D01*
X144768117Y-92478498D02*
X144848929Y-92505436D01*
X144848929Y-92505436D02*
X144983616Y-92586248D01*
X144983616Y-92586248D02*
X145064428Y-92667060D01*
X145064428Y-92667060D02*
X145145241Y-92801747D01*
X145145241Y-92801747D02*
X145172178Y-92882560D01*
X145172178Y-92882560D02*
X145172178Y-92990309D01*
X145172178Y-92990309D02*
X145118303Y-93098059D01*
X145118303Y-93098059D02*
X144983616Y-93232746D01*
X142920749Y-79070242D02*
X143674996Y-79447366D01*
X143674996Y-79447366D02*
X143297873Y-78693118D01*
X143998245Y-79070242D02*
X144105995Y-79016367D01*
X144105995Y-79016367D02*
X144240682Y-78881680D01*
X144240682Y-78881680D02*
X144267619Y-78800868D01*
X144267619Y-78800868D02*
X144267619Y-78746993D01*
X144267619Y-78746993D02*
X144240682Y-78666181D01*
X144240682Y-78666181D02*
X144186807Y-78612306D01*
X144186807Y-78612306D02*
X144105995Y-78585369D01*
X144105995Y-78585369D02*
X144052120Y-78585369D01*
X144052120Y-78585369D02*
X143971308Y-78612306D01*
X143971308Y-78612306D02*
X143836621Y-78693118D01*
X143836621Y-78693118D02*
X143755808Y-78720056D01*
X143755808Y-78720056D02*
X143701934Y-78720056D01*
X143701934Y-78720056D02*
X143621121Y-78693118D01*
X143621121Y-78693118D02*
X143567247Y-78639244D01*
X143567247Y-78639244D02*
X143540309Y-78558431D01*
X143540309Y-78558431D02*
X143540309Y-78504557D01*
X143540309Y-78504557D02*
X143567247Y-78423744D01*
X143567247Y-78423744D02*
X143701934Y-78289057D01*
X143701934Y-78289057D02*
X143809683Y-78235183D01*
X144429244Y-78154370D02*
X144698618Y-78423744D01*
X143944370Y-78046621D02*
X144429244Y-78154370D01*
X144429244Y-78154370D02*
X144321494Y-77669497D01*
X145021866Y-78046621D02*
X145129616Y-77992746D01*
X145129616Y-77992746D02*
X145264303Y-77858059D01*
X145264303Y-77858059D02*
X145291240Y-77777247D01*
X145291240Y-77777247D02*
X145291240Y-77723372D01*
X145291240Y-77723372D02*
X145264303Y-77642560D01*
X145264303Y-77642560D02*
X145210428Y-77588685D01*
X145210428Y-77588685D02*
X145129616Y-77561748D01*
X145129616Y-77561748D02*
X145075741Y-77561748D01*
X145075741Y-77561748D02*
X144994929Y-77588685D01*
X144994929Y-77588685D02*
X144860242Y-77669497D01*
X144860242Y-77669497D02*
X144779430Y-77696435D01*
X144779430Y-77696435D02*
X144725555Y-77696435D01*
X144725555Y-77696435D02*
X144644743Y-77669497D01*
X144644743Y-77669497D02*
X144590868Y-77615622D01*
X144590868Y-77615622D02*
X144563930Y-77534810D01*
X144563930Y-77534810D02*
X144563930Y-77480935D01*
X144563930Y-77480935D02*
X144590868Y-77400123D01*
X144590868Y-77400123D02*
X144725555Y-77265436D01*
X144725555Y-77265436D02*
X144833304Y-77211561D01*
X116989998Y-116900868D02*
X116909185Y-116927805D01*
X116909185Y-116927805D02*
X116828373Y-117008618D01*
X116828373Y-117008618D02*
X116774498Y-117116367D01*
X116774498Y-117116367D02*
X116774498Y-117224117D01*
X116774498Y-117224117D02*
X116801436Y-117304929D01*
X116801436Y-117304929D02*
X116882248Y-117439616D01*
X116882248Y-117439616D02*
X116963060Y-117520428D01*
X116963060Y-117520428D02*
X117097747Y-117601241D01*
X117097747Y-117601241D02*
X117178560Y-117628178D01*
X117178560Y-117628178D02*
X117286309Y-117628178D01*
X117286309Y-117628178D02*
X117394059Y-117574303D01*
X117394059Y-117574303D02*
X117447934Y-117520428D01*
X117447934Y-117520428D02*
X117501808Y-117412679D01*
X117501808Y-117412679D02*
X117501808Y-117358804D01*
X117501808Y-117358804D02*
X117313247Y-117170242D01*
X117313247Y-117170242D02*
X117205497Y-117277992D01*
X117798120Y-117170242D02*
X117232434Y-116604557D01*
X117232434Y-116604557D02*
X117447934Y-116389057D01*
X117447934Y-116389057D02*
X117528746Y-116362120D01*
X117528746Y-116362120D02*
X117582621Y-116362120D01*
X117582621Y-116362120D02*
X117663433Y-116389057D01*
X117663433Y-116389057D02*
X117744245Y-116469870D01*
X117744245Y-116469870D02*
X117771182Y-116550682D01*
X117771182Y-116550682D02*
X117771182Y-116604557D01*
X117771182Y-116604557D02*
X117744245Y-116685369D01*
X117744245Y-116685369D02*
X117528746Y-116900868D01*
X118660117Y-116308245D02*
X118336868Y-116631494D01*
X118498492Y-116469870D02*
X117932807Y-115904184D01*
X117932807Y-115904184D02*
X117959744Y-116038871D01*
X117959744Y-116038871D02*
X117959744Y-116146621D01*
X117959744Y-116146621D02*
X117932807Y-116227433D01*
X118282993Y-115553998D02*
X118633179Y-115203812D01*
X118633179Y-115203812D02*
X118660117Y-115607873D01*
X118660117Y-115607873D02*
X118740929Y-115527060D01*
X118740929Y-115527060D02*
X118821741Y-115500123D01*
X118821741Y-115500123D02*
X118875616Y-115500123D01*
X118875616Y-115500123D02*
X118956428Y-115527060D01*
X118956428Y-115527060D02*
X119091115Y-115661747D01*
X119091115Y-115661747D02*
X119118053Y-115742560D01*
X119118053Y-115742560D02*
X119118053Y-115796434D01*
X119118053Y-115796434D02*
X119091115Y-115877247D01*
X119091115Y-115877247D02*
X118929491Y-116038871D01*
X118929491Y-116038871D02*
X118848679Y-116065808D01*
X118848679Y-116065808D02*
X118794804Y-116065808D01*
X143097998Y-121980868D02*
X143017185Y-122007805D01*
X143017185Y-122007805D02*
X142936373Y-122088618D01*
X142936373Y-122088618D02*
X142882498Y-122196367D01*
X142882498Y-122196367D02*
X142882498Y-122304117D01*
X142882498Y-122304117D02*
X142909436Y-122384929D01*
X142909436Y-122384929D02*
X142990248Y-122519616D01*
X142990248Y-122519616D02*
X143071060Y-122600428D01*
X143071060Y-122600428D02*
X143205747Y-122681241D01*
X143205747Y-122681241D02*
X143286560Y-122708178D01*
X143286560Y-122708178D02*
X143394309Y-122708178D01*
X143394309Y-122708178D02*
X143502059Y-122654303D01*
X143502059Y-122654303D02*
X143555934Y-122600428D01*
X143555934Y-122600428D02*
X143609808Y-122492679D01*
X143609808Y-122492679D02*
X143609808Y-122438804D01*
X143609808Y-122438804D02*
X143421247Y-122250242D01*
X143421247Y-122250242D02*
X143313497Y-122357992D01*
X143906120Y-122250242D02*
X143340434Y-121684557D01*
X143340434Y-121684557D02*
X143555934Y-121469057D01*
X143555934Y-121469057D02*
X143636746Y-121442120D01*
X143636746Y-121442120D02*
X143690621Y-121442120D01*
X143690621Y-121442120D02*
X143771433Y-121469057D01*
X143771433Y-121469057D02*
X143852245Y-121549870D01*
X143852245Y-121549870D02*
X143879182Y-121630682D01*
X143879182Y-121630682D02*
X143879182Y-121684557D01*
X143879182Y-121684557D02*
X143852245Y-121765369D01*
X143852245Y-121765369D02*
X143636746Y-121980868D01*
X144768117Y-121388245D02*
X144444868Y-121711494D01*
X144606492Y-121549870D02*
X144040807Y-120984184D01*
X144040807Y-120984184D02*
X144067744Y-121118871D01*
X144067744Y-121118871D02*
X144067744Y-121226621D01*
X144067744Y-121226621D02*
X144040807Y-121307433D01*
X144390993Y-120633998D02*
X144768117Y-120256874D01*
X144768117Y-120256874D02*
X145091366Y-121064996D01*
X143097998Y-99120868D02*
X143017185Y-99147805D01*
X143017185Y-99147805D02*
X142936373Y-99228618D01*
X142936373Y-99228618D02*
X142882498Y-99336367D01*
X142882498Y-99336367D02*
X142882498Y-99444117D01*
X142882498Y-99444117D02*
X142909436Y-99524929D01*
X142909436Y-99524929D02*
X142990248Y-99659616D01*
X142990248Y-99659616D02*
X143071060Y-99740428D01*
X143071060Y-99740428D02*
X143205747Y-99821241D01*
X143205747Y-99821241D02*
X143286560Y-99848178D01*
X143286560Y-99848178D02*
X143394309Y-99848178D01*
X143394309Y-99848178D02*
X143502059Y-99794303D01*
X143502059Y-99794303D02*
X143555934Y-99740428D01*
X143555934Y-99740428D02*
X143609808Y-99632679D01*
X143609808Y-99632679D02*
X143609808Y-99578804D01*
X143609808Y-99578804D02*
X143421247Y-99390242D01*
X143421247Y-99390242D02*
X143313497Y-99497992D01*
X143906120Y-99390242D02*
X143340434Y-98824557D01*
X143340434Y-98824557D02*
X143555934Y-98609057D01*
X143555934Y-98609057D02*
X143636746Y-98582120D01*
X143636746Y-98582120D02*
X143690621Y-98582120D01*
X143690621Y-98582120D02*
X143771433Y-98609057D01*
X143771433Y-98609057D02*
X143852245Y-98689870D01*
X143852245Y-98689870D02*
X143879182Y-98770682D01*
X143879182Y-98770682D02*
X143879182Y-98824557D01*
X143879182Y-98824557D02*
X143852245Y-98905369D01*
X143852245Y-98905369D02*
X143636746Y-99120868D01*
X143933057Y-98339683D02*
X143933057Y-98285809D01*
X143933057Y-98285809D02*
X143959995Y-98204996D01*
X143959995Y-98204996D02*
X144094682Y-98070309D01*
X144094682Y-98070309D02*
X144175494Y-98043372D01*
X144175494Y-98043372D02*
X144229369Y-98043372D01*
X144229369Y-98043372D02*
X144310181Y-98070309D01*
X144310181Y-98070309D02*
X144364056Y-98124184D01*
X144364056Y-98124184D02*
X144417930Y-98231934D01*
X144417930Y-98231934D02*
X144417930Y-98878431D01*
X144417930Y-98878431D02*
X144768117Y-98528245D01*
X144687305Y-97477686D02*
X144579555Y-97585436D01*
X144579555Y-97585436D02*
X144552618Y-97666248D01*
X144552618Y-97666248D02*
X144552618Y-97720123D01*
X144552618Y-97720123D02*
X144579555Y-97854810D01*
X144579555Y-97854810D02*
X144660367Y-97989497D01*
X144660367Y-97989497D02*
X144875866Y-98204996D01*
X144875866Y-98204996D02*
X144956679Y-98231934D01*
X144956679Y-98231934D02*
X145010553Y-98231934D01*
X145010553Y-98231934D02*
X145091366Y-98204996D01*
X145091366Y-98204996D02*
X145199115Y-98097247D01*
X145199115Y-98097247D02*
X145226053Y-98016434D01*
X145226053Y-98016434D02*
X145226053Y-97962560D01*
X145226053Y-97962560D02*
X145199115Y-97881747D01*
X145199115Y-97881747D02*
X145064428Y-97747060D01*
X145064428Y-97747060D02*
X144983616Y-97720123D01*
X144983616Y-97720123D02*
X144929741Y-97720123D01*
X144929741Y-97720123D02*
X144848929Y-97747060D01*
X144848929Y-97747060D02*
X144741179Y-97854810D01*
X144741179Y-97854810D02*
X144714242Y-97935622D01*
X144714242Y-97935622D02*
X144714242Y-97989497D01*
X144714242Y-97989497D02*
X144741179Y-98070309D01*
X162438221Y-82969580D02*
X162390602Y-83017200D01*
X162390602Y-83017200D02*
X162247745Y-83064819D01*
X162247745Y-83064819D02*
X162152507Y-83064819D01*
X162152507Y-83064819D02*
X162009650Y-83017200D01*
X162009650Y-83017200D02*
X161914412Y-82921961D01*
X161914412Y-82921961D02*
X161866793Y-82826723D01*
X161866793Y-82826723D02*
X161819174Y-82636247D01*
X161819174Y-82636247D02*
X161819174Y-82493390D01*
X161819174Y-82493390D02*
X161866793Y-82302914D01*
X161866793Y-82302914D02*
X161914412Y-82207676D01*
X161914412Y-82207676D02*
X162009650Y-82112438D01*
X162009650Y-82112438D02*
X162152507Y-82064819D01*
X162152507Y-82064819D02*
X162247745Y-82064819D01*
X162247745Y-82064819D02*
X162390602Y-82112438D01*
X162390602Y-82112438D02*
X162438221Y-82160057D01*
X162819174Y-82160057D02*
X162866793Y-82112438D01*
X162866793Y-82112438D02*
X162962031Y-82064819D01*
X162962031Y-82064819D02*
X163200126Y-82064819D01*
X163200126Y-82064819D02*
X163295364Y-82112438D01*
X163295364Y-82112438D02*
X163342983Y-82160057D01*
X163342983Y-82160057D02*
X163390602Y-82255295D01*
X163390602Y-82255295D02*
X163390602Y-82350533D01*
X163390602Y-82350533D02*
X163342983Y-82493390D01*
X163342983Y-82493390D02*
X162771555Y-83064819D01*
X162771555Y-83064819D02*
X163390602Y-83064819D01*
X111008095Y-112454819D02*
X111008095Y-113264342D01*
X111008095Y-113264342D02*
X111055714Y-113359580D01*
X111055714Y-113359580D02*
X111103333Y-113407200D01*
X111103333Y-113407200D02*
X111198571Y-113454819D01*
X111198571Y-113454819D02*
X111389047Y-113454819D01*
X111389047Y-113454819D02*
X111484285Y-113407200D01*
X111484285Y-113407200D02*
X111531904Y-113359580D01*
X111531904Y-113359580D02*
X111579523Y-113264342D01*
X111579523Y-113264342D02*
X111579523Y-112454819D01*
X111960476Y-112454819D02*
X112579523Y-112454819D01*
X112579523Y-112454819D02*
X112246190Y-112835771D01*
X112246190Y-112835771D02*
X112389047Y-112835771D01*
X112389047Y-112835771D02*
X112484285Y-112883390D01*
X112484285Y-112883390D02*
X112531904Y-112931009D01*
X112531904Y-112931009D02*
X112579523Y-113026247D01*
X112579523Y-113026247D02*
X112579523Y-113264342D01*
X112579523Y-113264342D02*
X112531904Y-113359580D01*
X112531904Y-113359580D02*
X112484285Y-113407200D01*
X112484285Y-113407200D02*
X112389047Y-113454819D01*
X112389047Y-113454819D02*
X112103333Y-113454819D01*
X112103333Y-113454819D02*
X112008095Y-113407200D01*
X112008095Y-113407200D02*
X111960476Y-113359580D01*
X156088221Y-82969580D02*
X156040602Y-83017200D01*
X156040602Y-83017200D02*
X155897745Y-83064819D01*
X155897745Y-83064819D02*
X155802507Y-83064819D01*
X155802507Y-83064819D02*
X155659650Y-83017200D01*
X155659650Y-83017200D02*
X155564412Y-82921961D01*
X155564412Y-82921961D02*
X155516793Y-82826723D01*
X155516793Y-82826723D02*
X155469174Y-82636247D01*
X155469174Y-82636247D02*
X155469174Y-82493390D01*
X155469174Y-82493390D02*
X155516793Y-82302914D01*
X155516793Y-82302914D02*
X155564412Y-82207676D01*
X155564412Y-82207676D02*
X155659650Y-82112438D01*
X155659650Y-82112438D02*
X155802507Y-82064819D01*
X155802507Y-82064819D02*
X155897745Y-82064819D01*
X155897745Y-82064819D02*
X156040602Y-82112438D01*
X156040602Y-82112438D02*
X156088221Y-82160057D01*
X157040602Y-83064819D02*
X156469174Y-83064819D01*
X156754888Y-83064819D02*
X156754888Y-82064819D01*
X156754888Y-82064819D02*
X156659650Y-82207676D01*
X156659650Y-82207676D02*
X156564412Y-82302914D01*
X156564412Y-82302914D02*
X156469174Y-82350533D01*
X163916666Y-90954819D02*
X163916666Y-91669104D01*
X163916666Y-91669104D02*
X163869047Y-91811961D01*
X163869047Y-91811961D02*
X163773809Y-91907200D01*
X163773809Y-91907200D02*
X163630952Y-91954819D01*
X163630952Y-91954819D02*
X163535714Y-91954819D01*
X164345238Y-91050057D02*
X164392857Y-91002438D01*
X164392857Y-91002438D02*
X164488095Y-90954819D01*
X164488095Y-90954819D02*
X164726190Y-90954819D01*
X164726190Y-90954819D02*
X164821428Y-91002438D01*
X164821428Y-91002438D02*
X164869047Y-91050057D01*
X164869047Y-91050057D02*
X164916666Y-91145295D01*
X164916666Y-91145295D02*
X164916666Y-91240533D01*
X164916666Y-91240533D02*
X164869047Y-91383390D01*
X164869047Y-91383390D02*
X164297619Y-91954819D01*
X164297619Y-91954819D02*
X164916666Y-91954819D01*
X147333333Y-76444819D02*
X146857143Y-76444819D01*
X146857143Y-76444819D02*
X146857143Y-75444819D01*
X148190476Y-76444819D02*
X147619048Y-76444819D01*
X147904762Y-76444819D02*
X147904762Y-75444819D01*
X147904762Y-75444819D02*
X147809524Y-75587676D01*
X147809524Y-75587676D02*
X147714286Y-75682914D01*
X147714286Y-75682914D02*
X147619048Y-75730533D01*
X149704819Y-124166666D02*
X149228628Y-124499999D01*
X149704819Y-124738094D02*
X148704819Y-124738094D01*
X148704819Y-124738094D02*
X148704819Y-124357142D01*
X148704819Y-124357142D02*
X148752438Y-124261904D01*
X148752438Y-124261904D02*
X148800057Y-124214285D01*
X148800057Y-124214285D02*
X148895295Y-124166666D01*
X148895295Y-124166666D02*
X149038152Y-124166666D01*
X149038152Y-124166666D02*
X149133390Y-124214285D01*
X149133390Y-124214285D02*
X149181009Y-124261904D01*
X149181009Y-124261904D02*
X149228628Y-124357142D01*
X149228628Y-124357142D02*
X149228628Y-124738094D01*
X149704819Y-123214285D02*
X149704819Y-123785713D01*
X149704819Y-123499999D02*
X148704819Y-123499999D01*
X148704819Y-123499999D02*
X148847676Y-123595237D01*
X148847676Y-123595237D02*
X148942914Y-123690475D01*
X148942914Y-123690475D02*
X148990533Y-123785713D01*
X154228095Y-123150819D02*
X154228095Y-123960342D01*
X154228095Y-123960342D02*
X154275714Y-124055580D01*
X154275714Y-124055580D02*
X154323333Y-124103200D01*
X154323333Y-124103200D02*
X154418571Y-124150819D01*
X154418571Y-124150819D02*
X154609047Y-124150819D01*
X154609047Y-124150819D02*
X154704285Y-124103200D01*
X154704285Y-124103200D02*
X154751904Y-124055580D01*
X154751904Y-124055580D02*
X154799523Y-123960342D01*
X154799523Y-123960342D02*
X154799523Y-123150819D01*
X155228095Y-123246057D02*
X155275714Y-123198438D01*
X155275714Y-123198438D02*
X155370952Y-123150819D01*
X155370952Y-123150819D02*
X155609047Y-123150819D01*
X155609047Y-123150819D02*
X155704285Y-123198438D01*
X155704285Y-123198438D02*
X155751904Y-123246057D01*
X155751904Y-123246057D02*
X155799523Y-123341295D01*
X155799523Y-123341295D02*
X155799523Y-123436533D01*
X155799523Y-123436533D02*
X155751904Y-123579390D01*
X155751904Y-123579390D02*
X155180476Y-124150819D01*
X155180476Y-124150819D02*
X155799523Y-124150819D01*
X162785714Y-73954819D02*
X162785714Y-72954819D01*
X162785714Y-72954819D02*
X163166666Y-72954819D01*
X163166666Y-72954819D02*
X163261904Y-73002438D01*
X163261904Y-73002438D02*
X163309523Y-73050057D01*
X163309523Y-73050057D02*
X163357142Y-73145295D01*
X163357142Y-73145295D02*
X163357142Y-73288152D01*
X163357142Y-73288152D02*
X163309523Y-73383390D01*
X163309523Y-73383390D02*
X163261904Y-73431009D01*
X163261904Y-73431009D02*
X163166666Y-73478628D01*
X163166666Y-73478628D02*
X162785714Y-73478628D01*
X163738095Y-73907200D02*
X163880952Y-73954819D01*
X163880952Y-73954819D02*
X164119047Y-73954819D01*
X164119047Y-73954819D02*
X164214285Y-73907200D01*
X164214285Y-73907200D02*
X164261904Y-73859580D01*
X164261904Y-73859580D02*
X164309523Y-73764342D01*
X164309523Y-73764342D02*
X164309523Y-73669104D01*
X164309523Y-73669104D02*
X164261904Y-73573866D01*
X164261904Y-73573866D02*
X164214285Y-73526247D01*
X164214285Y-73526247D02*
X164119047Y-73478628D01*
X164119047Y-73478628D02*
X163928571Y-73431009D01*
X163928571Y-73431009D02*
X163833333Y-73383390D01*
X163833333Y-73383390D02*
X163785714Y-73335771D01*
X163785714Y-73335771D02*
X163738095Y-73240533D01*
X163738095Y-73240533D02*
X163738095Y-73145295D01*
X163738095Y-73145295D02*
X163785714Y-73050057D01*
X163785714Y-73050057D02*
X163833333Y-73002438D01*
X163833333Y-73002438D02*
X163928571Y-72954819D01*
X163928571Y-72954819D02*
X164166666Y-72954819D01*
X164166666Y-72954819D02*
X164309523Y-73002438D01*
X165261904Y-73954819D02*
X164690476Y-73954819D01*
X164976190Y-73954819D02*
X164976190Y-72954819D01*
X164976190Y-72954819D02*
X164880952Y-73097676D01*
X164880952Y-73097676D02*
X164785714Y-73192914D01*
X164785714Y-73192914D02*
X164690476Y-73240533D01*
X111416666Y-124454819D02*
X111416666Y-125169104D01*
X111416666Y-125169104D02*
X111369047Y-125311961D01*
X111369047Y-125311961D02*
X111273809Y-125407200D01*
X111273809Y-125407200D02*
X111130952Y-125454819D01*
X111130952Y-125454819D02*
X111035714Y-125454819D01*
X112416666Y-125454819D02*
X111845238Y-125454819D01*
X112130952Y-125454819D02*
X112130952Y-124454819D01*
X112130952Y-124454819D02*
X112035714Y-124597676D01*
X112035714Y-124597676D02*
X111940476Y-124692914D01*
X111940476Y-124692914D02*
X111845238Y-124740533D01*
X107583333Y-98109580D02*
X107535714Y-98157200D01*
X107535714Y-98157200D02*
X107392857Y-98204819D01*
X107392857Y-98204819D02*
X107297619Y-98204819D01*
X107297619Y-98204819D02*
X107154762Y-98157200D01*
X107154762Y-98157200D02*
X107059524Y-98061961D01*
X107059524Y-98061961D02*
X107011905Y-97966723D01*
X107011905Y-97966723D02*
X106964286Y-97776247D01*
X106964286Y-97776247D02*
X106964286Y-97633390D01*
X106964286Y-97633390D02*
X107011905Y-97442914D01*
X107011905Y-97442914D02*
X107059524Y-97347676D01*
X107059524Y-97347676D02*
X107154762Y-97252438D01*
X107154762Y-97252438D02*
X107297619Y-97204819D01*
X107297619Y-97204819D02*
X107392857Y-97204819D01*
X107392857Y-97204819D02*
X107535714Y-97252438D01*
X107535714Y-97252438D02*
X107583333Y-97300057D01*
X107916667Y-97204819D02*
X108535714Y-97204819D01*
X108535714Y-97204819D02*
X108202381Y-97585771D01*
X108202381Y-97585771D02*
X108345238Y-97585771D01*
X108345238Y-97585771D02*
X108440476Y-97633390D01*
X108440476Y-97633390D02*
X108488095Y-97681009D01*
X108488095Y-97681009D02*
X108535714Y-97776247D01*
X108535714Y-97776247D02*
X108535714Y-98014342D01*
X108535714Y-98014342D02*
X108488095Y-98109580D01*
X108488095Y-98109580D02*
X108440476Y-98157200D01*
X108440476Y-98157200D02*
X108345238Y-98204819D01*
X108345238Y-98204819D02*
X108059524Y-98204819D01*
X108059524Y-98204819D02*
X107964286Y-98157200D01*
X107964286Y-98157200D02*
X107916667Y-98109580D01*
X164954819Y-124166666D02*
X164478628Y-124499999D01*
X164954819Y-124738094D02*
X163954819Y-124738094D01*
X163954819Y-124738094D02*
X163954819Y-124357142D01*
X163954819Y-124357142D02*
X164002438Y-124261904D01*
X164002438Y-124261904D02*
X164050057Y-124214285D01*
X164050057Y-124214285D02*
X164145295Y-124166666D01*
X164145295Y-124166666D02*
X164288152Y-124166666D01*
X164288152Y-124166666D02*
X164383390Y-124214285D01*
X164383390Y-124214285D02*
X164431009Y-124261904D01*
X164431009Y-124261904D02*
X164478628Y-124357142D01*
X164478628Y-124357142D02*
X164478628Y-124738094D01*
X164050057Y-123785713D02*
X164002438Y-123738094D01*
X164002438Y-123738094D02*
X163954819Y-123642856D01*
X163954819Y-123642856D02*
X163954819Y-123404761D01*
X163954819Y-123404761D02*
X164002438Y-123309523D01*
X164002438Y-123309523D02*
X164050057Y-123261904D01*
X164050057Y-123261904D02*
X164145295Y-123214285D01*
X164145295Y-123214285D02*
X164240533Y-123214285D01*
X164240533Y-123214285D02*
X164383390Y-123261904D01*
X164383390Y-123261904D02*
X164954819Y-123833332D01*
X164954819Y-123833332D02*
X164954819Y-123214285D01*
D11*
G04 #@! TO.C,U1*
X120500000Y-74500000D02*
X120500000Y-74800000D01*
X120500000Y-74500000D02*
X141500000Y-74500000D01*
X120500000Y-76900000D02*
X120500000Y-77300000D01*
X120500000Y-77167000D02*
X123507000Y-77167000D01*
X120500000Y-79500000D02*
X120500000Y-79900000D01*
X120500000Y-82000000D02*
X120500000Y-82400000D01*
X120500000Y-84600000D02*
X120500000Y-85000000D01*
X120500000Y-87100000D02*
X120500000Y-87500000D01*
X120500000Y-89600000D02*
X120500000Y-90000000D01*
X120500000Y-92200000D02*
X120500000Y-92600000D01*
X120500000Y-94700000D02*
X120500000Y-95100000D01*
X120500000Y-97300000D02*
X120500000Y-97700000D01*
X120500000Y-99800000D02*
X120500000Y-100200000D01*
X120500000Y-102300000D02*
X120500000Y-102700000D01*
X120500000Y-104900000D02*
X120500000Y-105300000D01*
X120500000Y-107400000D02*
X120500000Y-107800000D01*
X120500000Y-110000000D02*
X120500000Y-110400000D01*
X120500000Y-112500000D02*
X120500000Y-112900000D01*
X120500000Y-115100000D02*
X120500000Y-115500000D01*
X120500000Y-117600000D02*
X120500000Y-118000000D01*
X120500000Y-120100000D02*
X120500000Y-120500000D01*
X120500000Y-122700000D02*
X120500000Y-123100000D01*
X123507000Y-77167000D02*
X123507000Y-74500000D01*
X127300000Y-125500000D02*
X120500000Y-125500000D01*
X129500000Y-125500000D02*
X129900000Y-125500000D01*
X132100000Y-125500000D02*
X132500000Y-125500000D01*
X141500000Y-74500000D02*
X141500000Y-74800000D01*
X141500000Y-76900000D02*
X141500000Y-77300000D01*
X141500000Y-79500000D02*
X141500000Y-79900000D01*
X141500000Y-82000000D02*
X141500000Y-82400000D01*
X141500000Y-84600000D02*
X141500000Y-85000000D01*
X141500000Y-87100000D02*
X141500000Y-87500000D01*
X141500000Y-89600000D02*
X141500000Y-90000000D01*
X141500000Y-92200000D02*
X141500000Y-92600000D01*
X141500000Y-94700000D02*
X141500000Y-95100000D01*
X141500000Y-97300000D02*
X141500000Y-97700000D01*
X141500000Y-99800000D02*
X141500000Y-100200000D01*
X141500000Y-102300000D02*
X141500000Y-102700000D01*
X141500000Y-104900000D02*
X141500000Y-105300000D01*
X141500000Y-107400000D02*
X141500000Y-107800000D01*
X141500000Y-110000000D02*
X141500000Y-110400000D01*
X141500000Y-112500000D02*
X141500000Y-112900000D01*
X141500000Y-115100000D02*
X141500000Y-115500000D01*
X141500000Y-117600000D02*
X141500000Y-118000000D01*
X141500000Y-120100000D02*
X141500000Y-120500000D01*
X141500000Y-122700000D02*
X141500000Y-123100000D01*
X141500000Y-125500000D02*
X134700000Y-125500000D01*
G04 #@! TO.C,C2*
X159800113Y-84885000D02*
X160300113Y-84885000D01*
X160050113Y-84635000D02*
X160050113Y-85135000D01*
X162604888Y-83780000D02*
X162604888Y-85320000D01*
X162604888Y-87400000D02*
X162604888Y-88940000D01*
X162644888Y-83780000D02*
X162644888Y-85320000D01*
X162644888Y-87400000D02*
X162644888Y-88940000D01*
X162684888Y-83781000D02*
X162684888Y-85320000D01*
X162684888Y-87400000D02*
X162684888Y-88939000D01*
X162724888Y-83782000D02*
X162724888Y-85320000D01*
X162724888Y-87400000D02*
X162724888Y-88938000D01*
X162764888Y-83784000D02*
X162764888Y-85320000D01*
X162764888Y-87400000D02*
X162764888Y-88936000D01*
X162804888Y-83787000D02*
X162804888Y-85320000D01*
X162804888Y-87400000D02*
X162804888Y-88933000D01*
X162844888Y-83791000D02*
X162844888Y-85320000D01*
X162844888Y-87400000D02*
X162844888Y-88929000D01*
X162884888Y-83795000D02*
X162884888Y-85320000D01*
X162884888Y-87400000D02*
X162884888Y-88925000D01*
X162924888Y-83799000D02*
X162924888Y-85320000D01*
X162924888Y-87400000D02*
X162924888Y-88921000D01*
X162964888Y-83804000D02*
X162964888Y-85320000D01*
X162964888Y-87400000D02*
X162964888Y-88916000D01*
X163004888Y-83810000D02*
X163004888Y-85320000D01*
X163004888Y-87400000D02*
X163004888Y-88910000D01*
X163044888Y-83817000D02*
X163044888Y-85320000D01*
X163044888Y-87400000D02*
X163044888Y-88903000D01*
X163084888Y-83824000D02*
X163084888Y-85320000D01*
X163084888Y-87400000D02*
X163084888Y-88896000D01*
X163124888Y-83832000D02*
X163124888Y-85320000D01*
X163124888Y-87400000D02*
X163124888Y-88888000D01*
X163164888Y-83840000D02*
X163164888Y-85320000D01*
X163164888Y-87400000D02*
X163164888Y-88880000D01*
X163204888Y-83849000D02*
X163204888Y-85320000D01*
X163204888Y-87400000D02*
X163204888Y-88871000D01*
X163244888Y-83859000D02*
X163244888Y-85320000D01*
X163244888Y-87400000D02*
X163244888Y-88861000D01*
X163284888Y-83869000D02*
X163284888Y-85320000D01*
X163284888Y-87400000D02*
X163284888Y-88851000D01*
X163325888Y-83880000D02*
X163325888Y-85320000D01*
X163325888Y-87400000D02*
X163325888Y-88840000D01*
X163365888Y-83892000D02*
X163365888Y-85320000D01*
X163365888Y-87400000D02*
X163365888Y-88828000D01*
X163405888Y-83905000D02*
X163405888Y-85320000D01*
X163405888Y-87400000D02*
X163405888Y-88815000D01*
X163445888Y-83918000D02*
X163445888Y-85320000D01*
X163445888Y-87400000D02*
X163445888Y-88802000D01*
X163485888Y-83932000D02*
X163485888Y-85320000D01*
X163485888Y-87400000D02*
X163485888Y-88788000D01*
X163525888Y-83946000D02*
X163525888Y-85320000D01*
X163525888Y-87400000D02*
X163525888Y-88774000D01*
X163565888Y-83962000D02*
X163565888Y-85320000D01*
X163565888Y-87400000D02*
X163565888Y-88758000D01*
X163605888Y-83978000D02*
X163605888Y-85320000D01*
X163605888Y-87400000D02*
X163605888Y-88742000D01*
X163645888Y-83995000D02*
X163645888Y-85320000D01*
X163645888Y-87400000D02*
X163645888Y-88725000D01*
X163685888Y-84012000D02*
X163685888Y-85320000D01*
X163685888Y-87400000D02*
X163685888Y-88708000D01*
X163725888Y-84031000D02*
X163725888Y-85320000D01*
X163725888Y-87400000D02*
X163725888Y-88689000D01*
X163765888Y-84050000D02*
X163765888Y-85320000D01*
X163765888Y-87400000D02*
X163765888Y-88670000D01*
X163805888Y-84070000D02*
X163805888Y-85320000D01*
X163805888Y-87400000D02*
X163805888Y-88650000D01*
X163845888Y-84092000D02*
X163845888Y-85320000D01*
X163845888Y-87400000D02*
X163845888Y-88628000D01*
X163885888Y-84113000D02*
X163885888Y-85320000D01*
X163885888Y-87400000D02*
X163885888Y-88607000D01*
X163925888Y-84136000D02*
X163925888Y-85320000D01*
X163925888Y-87400000D02*
X163925888Y-88584000D01*
X163965888Y-84160000D02*
X163965888Y-85320000D01*
X163965888Y-87400000D02*
X163965888Y-88560000D01*
X164005888Y-84185000D02*
X164005888Y-85320000D01*
X164005888Y-87400000D02*
X164005888Y-88535000D01*
X164045888Y-84211000D02*
X164045888Y-85320000D01*
X164045888Y-87400000D02*
X164045888Y-88509000D01*
X164085888Y-84238000D02*
X164085888Y-85320000D01*
X164085888Y-87400000D02*
X164085888Y-88482000D01*
X164125888Y-84265000D02*
X164125888Y-85320000D01*
X164125888Y-87400000D02*
X164125888Y-88455000D01*
X164165888Y-84295000D02*
X164165888Y-85320000D01*
X164165888Y-87400000D02*
X164165888Y-88425000D01*
X164205888Y-84325000D02*
X164205888Y-85320000D01*
X164205888Y-87400000D02*
X164205888Y-88395000D01*
X164245888Y-84356000D02*
X164245888Y-85320000D01*
X164245888Y-87400000D02*
X164245888Y-88364000D01*
X164285888Y-84389000D02*
X164285888Y-85320000D01*
X164285888Y-87400000D02*
X164285888Y-88331000D01*
X164325888Y-84423000D02*
X164325888Y-85320000D01*
X164325888Y-87400000D02*
X164325888Y-88297000D01*
X164365888Y-84459000D02*
X164365888Y-85320000D01*
X164365888Y-87400000D02*
X164365888Y-88261000D01*
X164405888Y-84496000D02*
X164405888Y-85320000D01*
X164405888Y-87400000D02*
X164405888Y-88224000D01*
X164445888Y-84534000D02*
X164445888Y-85320000D01*
X164445888Y-87400000D02*
X164445888Y-88186000D01*
X164485888Y-84575000D02*
X164485888Y-85320000D01*
X164485888Y-87400000D02*
X164485888Y-88145000D01*
X164525888Y-84617000D02*
X164525888Y-85320000D01*
X164525888Y-87400000D02*
X164525888Y-88103000D01*
X164565888Y-84661000D02*
X164565888Y-85320000D01*
X164565888Y-87400000D02*
X164565888Y-88059000D01*
X164605888Y-84707000D02*
X164605888Y-85320000D01*
X164605888Y-87400000D02*
X164605888Y-88013000D01*
X164645888Y-84755000D02*
X164645888Y-87965000D01*
X164685888Y-84806000D02*
X164685888Y-87914000D01*
X164725888Y-84860000D02*
X164725888Y-87860000D01*
X164765888Y-84917000D02*
X164765888Y-87803000D01*
X164805888Y-84977000D02*
X164805888Y-87743000D01*
X164845888Y-85041000D02*
X164845888Y-87679000D01*
X164885888Y-85109000D02*
X164885888Y-87611000D01*
X164925888Y-85182000D02*
X164925888Y-87538000D01*
X164965888Y-85262000D02*
X164965888Y-87458000D01*
X165005888Y-85349000D02*
X165005888Y-87371000D01*
X165045888Y-85445000D02*
X165045888Y-87275000D01*
X165085888Y-85555000D02*
X165085888Y-87165000D01*
X165125888Y-85683000D02*
X165125888Y-87037000D01*
X165165888Y-85842000D02*
X165165888Y-86878000D01*
X165205888Y-86076000D02*
X165205888Y-86644000D01*
X165224888Y-86360000D02*
G75*
G03*
X165224888Y-86360000I-2620000J0D01*
G01*
G04 #@! TO.C,U3*
X109120000Y-101550000D02*
X109120000Y-111830000D01*
X109120000Y-111830000D02*
X114420000Y-111830000D01*
X110770000Y-101550000D02*
X109120000Y-101550000D01*
X114420000Y-101550000D02*
X112770000Y-101550000D01*
X114420000Y-111830000D02*
X114420000Y-101550000D01*
X110770000Y-101550000D02*
G75*
G03*
X112770000Y-101550000I1000000J0D01*
G01*
G04 #@! TO.C,C1*
X153450113Y-84885000D02*
X153950113Y-84885000D01*
X153700113Y-84635000D02*
X153700113Y-85135000D01*
X156254888Y-83780000D02*
X156254888Y-85320000D01*
X156254888Y-87400000D02*
X156254888Y-88940000D01*
X156294888Y-83780000D02*
X156294888Y-85320000D01*
X156294888Y-87400000D02*
X156294888Y-88940000D01*
X156334888Y-83781000D02*
X156334888Y-85320000D01*
X156334888Y-87400000D02*
X156334888Y-88939000D01*
X156374888Y-83782000D02*
X156374888Y-85320000D01*
X156374888Y-87400000D02*
X156374888Y-88938000D01*
X156414888Y-83784000D02*
X156414888Y-85320000D01*
X156414888Y-87400000D02*
X156414888Y-88936000D01*
X156454888Y-83787000D02*
X156454888Y-85320000D01*
X156454888Y-87400000D02*
X156454888Y-88933000D01*
X156494888Y-83791000D02*
X156494888Y-85320000D01*
X156494888Y-87400000D02*
X156494888Y-88929000D01*
X156534888Y-83795000D02*
X156534888Y-85320000D01*
X156534888Y-87400000D02*
X156534888Y-88925000D01*
X156574888Y-83799000D02*
X156574888Y-85320000D01*
X156574888Y-87400000D02*
X156574888Y-88921000D01*
X156614888Y-83804000D02*
X156614888Y-85320000D01*
X156614888Y-87400000D02*
X156614888Y-88916000D01*
X156654888Y-83810000D02*
X156654888Y-85320000D01*
X156654888Y-87400000D02*
X156654888Y-88910000D01*
X156694888Y-83817000D02*
X156694888Y-85320000D01*
X156694888Y-87400000D02*
X156694888Y-88903000D01*
X156734888Y-83824000D02*
X156734888Y-85320000D01*
X156734888Y-87400000D02*
X156734888Y-88896000D01*
X156774888Y-83832000D02*
X156774888Y-85320000D01*
X156774888Y-87400000D02*
X156774888Y-88888000D01*
X156814888Y-83840000D02*
X156814888Y-85320000D01*
X156814888Y-87400000D02*
X156814888Y-88880000D01*
X156854888Y-83849000D02*
X156854888Y-85320000D01*
X156854888Y-87400000D02*
X156854888Y-88871000D01*
X156894888Y-83859000D02*
X156894888Y-85320000D01*
X156894888Y-87400000D02*
X156894888Y-88861000D01*
X156934888Y-83869000D02*
X156934888Y-85320000D01*
X156934888Y-87400000D02*
X156934888Y-88851000D01*
X156975888Y-83880000D02*
X156975888Y-85320000D01*
X156975888Y-87400000D02*
X156975888Y-88840000D01*
X157015888Y-83892000D02*
X157015888Y-85320000D01*
X157015888Y-87400000D02*
X157015888Y-88828000D01*
X157055888Y-83905000D02*
X157055888Y-85320000D01*
X157055888Y-87400000D02*
X157055888Y-88815000D01*
X157095888Y-83918000D02*
X157095888Y-85320000D01*
X157095888Y-87400000D02*
X157095888Y-88802000D01*
X157135888Y-83932000D02*
X157135888Y-85320000D01*
X157135888Y-87400000D02*
X157135888Y-88788000D01*
X157175888Y-83946000D02*
X157175888Y-85320000D01*
X157175888Y-87400000D02*
X157175888Y-88774000D01*
X157215888Y-83962000D02*
X157215888Y-85320000D01*
X157215888Y-87400000D02*
X157215888Y-88758000D01*
X157255888Y-83978000D02*
X157255888Y-85320000D01*
X157255888Y-87400000D02*
X157255888Y-88742000D01*
X157295888Y-83995000D02*
X157295888Y-85320000D01*
X157295888Y-87400000D02*
X157295888Y-88725000D01*
X157335888Y-84012000D02*
X157335888Y-85320000D01*
X157335888Y-87400000D02*
X157335888Y-88708000D01*
X157375888Y-84031000D02*
X157375888Y-85320000D01*
X157375888Y-87400000D02*
X157375888Y-88689000D01*
X157415888Y-84050000D02*
X157415888Y-85320000D01*
X157415888Y-87400000D02*
X157415888Y-88670000D01*
X157455888Y-84070000D02*
X157455888Y-85320000D01*
X157455888Y-87400000D02*
X157455888Y-88650000D01*
X157495888Y-84092000D02*
X157495888Y-85320000D01*
X157495888Y-87400000D02*
X157495888Y-88628000D01*
X157535888Y-84113000D02*
X157535888Y-85320000D01*
X157535888Y-87400000D02*
X157535888Y-88607000D01*
X157575888Y-84136000D02*
X157575888Y-85320000D01*
X157575888Y-87400000D02*
X157575888Y-88584000D01*
X157615888Y-84160000D02*
X157615888Y-85320000D01*
X157615888Y-87400000D02*
X157615888Y-88560000D01*
X157655888Y-84185000D02*
X157655888Y-85320000D01*
X157655888Y-87400000D02*
X157655888Y-88535000D01*
X157695888Y-84211000D02*
X157695888Y-85320000D01*
X157695888Y-87400000D02*
X157695888Y-88509000D01*
X157735888Y-84238000D02*
X157735888Y-85320000D01*
X157735888Y-87400000D02*
X157735888Y-88482000D01*
X157775888Y-84265000D02*
X157775888Y-85320000D01*
X157775888Y-87400000D02*
X157775888Y-88455000D01*
X157815888Y-84295000D02*
X157815888Y-85320000D01*
X157815888Y-87400000D02*
X157815888Y-88425000D01*
X157855888Y-84325000D02*
X157855888Y-85320000D01*
X157855888Y-87400000D02*
X157855888Y-88395000D01*
X157895888Y-84356000D02*
X157895888Y-85320000D01*
X157895888Y-87400000D02*
X157895888Y-88364000D01*
X157935888Y-84389000D02*
X157935888Y-85320000D01*
X157935888Y-87400000D02*
X157935888Y-88331000D01*
X157975888Y-84423000D02*
X157975888Y-85320000D01*
X157975888Y-87400000D02*
X157975888Y-88297000D01*
X158015888Y-84459000D02*
X158015888Y-85320000D01*
X158015888Y-87400000D02*
X158015888Y-88261000D01*
X158055888Y-84496000D02*
X158055888Y-85320000D01*
X158055888Y-87400000D02*
X158055888Y-88224000D01*
X158095888Y-84534000D02*
X158095888Y-85320000D01*
X158095888Y-87400000D02*
X158095888Y-88186000D01*
X158135888Y-84575000D02*
X158135888Y-85320000D01*
X158135888Y-87400000D02*
X158135888Y-88145000D01*
X158175888Y-84617000D02*
X158175888Y-85320000D01*
X158175888Y-87400000D02*
X158175888Y-88103000D01*
X158215888Y-84661000D02*
X158215888Y-85320000D01*
X158215888Y-87400000D02*
X158215888Y-88059000D01*
X158255888Y-84707000D02*
X158255888Y-85320000D01*
X158255888Y-87400000D02*
X158255888Y-88013000D01*
X158295888Y-84755000D02*
X158295888Y-87965000D01*
X158335888Y-84806000D02*
X158335888Y-87914000D01*
X158375888Y-84860000D02*
X158375888Y-87860000D01*
X158415888Y-84917000D02*
X158415888Y-87803000D01*
X158455888Y-84977000D02*
X158455888Y-87743000D01*
X158495888Y-85041000D02*
X158495888Y-87679000D01*
X158535888Y-85109000D02*
X158535888Y-87611000D01*
X158575888Y-85182000D02*
X158575888Y-87538000D01*
X158615888Y-85262000D02*
X158615888Y-87458000D01*
X158655888Y-85349000D02*
X158655888Y-87371000D01*
X158695888Y-85445000D02*
X158695888Y-87275000D01*
X158735888Y-85555000D02*
X158735888Y-87165000D01*
X158775888Y-85683000D02*
X158775888Y-87037000D01*
X158815888Y-85842000D02*
X158815888Y-86878000D01*
X158855888Y-86076000D02*
X158855888Y-86644000D01*
X158874888Y-86360000D02*
G75*
G03*
X158874888Y-86360000I-2620000J0D01*
G01*
G04 #@! TO.C,J2*
X164940000Y-101430000D02*
X164940000Y-92610000D01*
X164940000Y-100620000D02*
X162400000Y-100620000D01*
X164940000Y-92610000D02*
X147480000Y-92610000D01*
X164030000Y-99620000D02*
X148390000Y-99620000D01*
X164030000Y-94320000D02*
X164030000Y-99620000D01*
X163290000Y-94320000D02*
X164030000Y-94320000D01*
X162290000Y-101430000D02*
X160290000Y-101430000D01*
X162290000Y-99620000D02*
X162290000Y-101430000D01*
X161590000Y-102230000D02*
X160990000Y-102230000D01*
X161290000Y-101630000D02*
X161590000Y-102230000D01*
X160990000Y-102230000D02*
X161290000Y-101630000D01*
X160290000Y-101430000D02*
X160290000Y-99620000D01*
X160290000Y-100620000D02*
X157210000Y-100620000D01*
X160290000Y-99620000D02*
X162290000Y-99620000D01*
X159290000Y-94320000D02*
X158210000Y-94320000D01*
X157210000Y-101430000D02*
X155210000Y-101430000D01*
X157210000Y-99620000D02*
X157210000Y-101430000D01*
X155210000Y-101430000D02*
X155210000Y-99620000D01*
X155210000Y-100620000D02*
X152130000Y-100620000D01*
X155210000Y-99620000D02*
X157210000Y-99620000D01*
X154210000Y-94320000D02*
X153130000Y-94320000D01*
X152130000Y-101430000D02*
X150130000Y-101430000D01*
X152130000Y-99620000D02*
X152130000Y-101430000D01*
X150130000Y-101430000D02*
X150130000Y-99620000D01*
X150130000Y-99620000D02*
X152130000Y-99620000D01*
X148390000Y-99620000D02*
X148390000Y-94320000D01*
X148390000Y-94320000D02*
X149130000Y-94320000D01*
X147480000Y-101430000D02*
X164940000Y-101430000D01*
X147480000Y-100620000D02*
X150020000Y-100620000D01*
X147480000Y-92610000D02*
X147480000Y-101430000D01*
X163290000Y-94320000D02*
G75*
G03*
X159303158Y-94304179I-2000000J-1650000D01*
G01*
X158210000Y-94320000D02*
G75*
G03*
X154223158Y-94304179I-2000000J-1650000D01*
G01*
X153130000Y-94320000D02*
G75*
G03*
X149143158Y-94304179I-2000000J-1650000D01*
G01*
G04 #@! TO.C,L1*
X149860000Y-88885000D02*
X149860000Y-88125000D01*
X147490000Y-88125000D02*
X152230000Y-88125000D01*
X152230000Y-88125000D02*
X152230000Y-76885000D01*
X147490000Y-76885000D02*
X147490000Y-88125000D01*
X152230000Y-76885000D02*
X147490000Y-76885000D01*
X149860000Y-76125000D02*
X149860000Y-76885000D01*
G04 #@! TO.C,R1*
X147320000Y-114705000D02*
X147320000Y-115475000D01*
X148690000Y-115475000D02*
X145950000Y-115475000D01*
X145950000Y-115475000D02*
X145950000Y-122015000D01*
X148690000Y-122015000D02*
X148690000Y-115475000D01*
X145950000Y-122015000D02*
X148690000Y-122015000D01*
X147320000Y-122785000D02*
X147320000Y-122015000D01*
G04 #@! TO.C,U2*
X157640000Y-122696000D02*
X157640000Y-114956000D01*
X157640000Y-114956000D02*
X152340000Y-114956000D01*
X155990000Y-122696000D02*
X157640000Y-122696000D01*
X152340000Y-122696000D02*
X153990000Y-122696000D01*
X152340000Y-114956000D02*
X152340000Y-122696000D01*
X155990000Y-122696000D02*
G75*
G03*
X153990000Y-122696000I-1000000J0D01*
G01*
G04 #@! TO.C,PS1*
X153125000Y-80875000D02*
X154325000Y-80875000D01*
X153375000Y-80625000D02*
X165145000Y-80625000D01*
X153125000Y-79675000D02*
X153125000Y-80875000D01*
X153375000Y-74285000D02*
X153375000Y-80625000D01*
X153375000Y-74285000D02*
X165145000Y-74285000D01*
X165145000Y-74285000D02*
X165145000Y-80625000D01*
G04 #@! TO.C,J1*
X113090000Y-123870000D02*
X111760000Y-123870000D01*
X113090000Y-122540000D02*
X113090000Y-123870000D01*
X113090000Y-121270000D02*
X113090000Y-116130000D01*
X113090000Y-121270000D02*
X110430000Y-121270000D01*
X113090000Y-116130000D02*
X110430000Y-116130000D01*
X110430000Y-121270000D02*
X110430000Y-116130000D01*
G04 #@! TO.C,C3*
X114519888Y-99265000D02*
X114019888Y-99265000D01*
X114269888Y-99515000D02*
X114269888Y-99015000D01*
X111715113Y-100370000D02*
X111715113Y-98830000D01*
X111715113Y-96750000D02*
X111715113Y-95210000D01*
X111675113Y-100370000D02*
X111675113Y-98830000D01*
X111675113Y-96750000D02*
X111675113Y-95210000D01*
X111635113Y-100369000D02*
X111635113Y-98830000D01*
X111635113Y-96750000D02*
X111635113Y-95211000D01*
X111595113Y-100368000D02*
X111595113Y-98830000D01*
X111595113Y-96750000D02*
X111595113Y-95212000D01*
X111555113Y-100366000D02*
X111555113Y-98830000D01*
X111555113Y-96750000D02*
X111555113Y-95214000D01*
X111515113Y-100363000D02*
X111515113Y-98830000D01*
X111515113Y-96750000D02*
X111515113Y-95217000D01*
X111475113Y-100359000D02*
X111475113Y-98830000D01*
X111475113Y-96750000D02*
X111475113Y-95221000D01*
X111435113Y-100355000D02*
X111435113Y-98830000D01*
X111435113Y-96750000D02*
X111435113Y-95225000D01*
X111395113Y-100351000D02*
X111395113Y-98830000D01*
X111395113Y-96750000D02*
X111395113Y-95229000D01*
X111355113Y-100346000D02*
X111355113Y-98830000D01*
X111355113Y-96750000D02*
X111355113Y-95234000D01*
X111315113Y-100340000D02*
X111315113Y-98830000D01*
X111315113Y-96750000D02*
X111315113Y-95240000D01*
X111275113Y-100333000D02*
X111275113Y-98830000D01*
X111275113Y-96750000D02*
X111275113Y-95247000D01*
X111235113Y-100326000D02*
X111235113Y-98830000D01*
X111235113Y-96750000D02*
X111235113Y-95254000D01*
X111195113Y-100318000D02*
X111195113Y-98830000D01*
X111195113Y-96750000D02*
X111195113Y-95262000D01*
X111155113Y-100310000D02*
X111155113Y-98830000D01*
X111155113Y-96750000D02*
X111155113Y-95270000D01*
X111115113Y-100301000D02*
X111115113Y-98830000D01*
X111115113Y-96750000D02*
X111115113Y-95279000D01*
X111075113Y-100291000D02*
X111075113Y-98830000D01*
X111075113Y-96750000D02*
X111075113Y-95289000D01*
X111035113Y-100281000D02*
X111035113Y-98830000D01*
X111035113Y-96750000D02*
X111035113Y-95299000D01*
X110994113Y-100270000D02*
X110994113Y-98830000D01*
X110994113Y-96750000D02*
X110994113Y-95310000D01*
X110954113Y-100258000D02*
X110954113Y-98830000D01*
X110954113Y-96750000D02*
X110954113Y-95322000D01*
X110914113Y-100245000D02*
X110914113Y-98830000D01*
X110914113Y-96750000D02*
X110914113Y-95335000D01*
X110874113Y-100232000D02*
X110874113Y-98830000D01*
X110874113Y-96750000D02*
X110874113Y-95348000D01*
X110834113Y-100218000D02*
X110834113Y-98830000D01*
X110834113Y-96750000D02*
X110834113Y-95362000D01*
X110794113Y-100204000D02*
X110794113Y-98830000D01*
X110794113Y-96750000D02*
X110794113Y-95376000D01*
X110754113Y-100188000D02*
X110754113Y-98830000D01*
X110754113Y-96750000D02*
X110754113Y-95392000D01*
X110714113Y-100172000D02*
X110714113Y-98830000D01*
X110714113Y-96750000D02*
X110714113Y-95408000D01*
X110674113Y-100155000D02*
X110674113Y-98830000D01*
X110674113Y-96750000D02*
X110674113Y-95425000D01*
X110634113Y-100138000D02*
X110634113Y-98830000D01*
X110634113Y-96750000D02*
X110634113Y-95442000D01*
X110594113Y-100119000D02*
X110594113Y-98830000D01*
X110594113Y-96750000D02*
X110594113Y-95461000D01*
X110554113Y-100100000D02*
X110554113Y-98830000D01*
X110554113Y-96750000D02*
X110554113Y-95480000D01*
X110514113Y-100080000D02*
X110514113Y-98830000D01*
X110514113Y-96750000D02*
X110514113Y-95500000D01*
X110474113Y-100058000D02*
X110474113Y-98830000D01*
X110474113Y-96750000D02*
X110474113Y-95522000D01*
X110434113Y-100037000D02*
X110434113Y-98830000D01*
X110434113Y-96750000D02*
X110434113Y-95543000D01*
X110394113Y-100014000D02*
X110394113Y-98830000D01*
X110394113Y-96750000D02*
X110394113Y-95566000D01*
X110354113Y-99990000D02*
X110354113Y-98830000D01*
X110354113Y-96750000D02*
X110354113Y-95590000D01*
X110314113Y-99965000D02*
X110314113Y-98830000D01*
X110314113Y-96750000D02*
X110314113Y-95615000D01*
X110274113Y-99939000D02*
X110274113Y-98830000D01*
X110274113Y-96750000D02*
X110274113Y-95641000D01*
X110234113Y-99912000D02*
X110234113Y-98830000D01*
X110234113Y-96750000D02*
X110234113Y-95668000D01*
X110194113Y-99885000D02*
X110194113Y-98830000D01*
X110194113Y-96750000D02*
X110194113Y-95695000D01*
X110154113Y-99855000D02*
X110154113Y-98830000D01*
X110154113Y-96750000D02*
X110154113Y-95725000D01*
X110114113Y-99825000D02*
X110114113Y-98830000D01*
X110114113Y-96750000D02*
X110114113Y-95755000D01*
X110074113Y-99794000D02*
X110074113Y-98830000D01*
X110074113Y-96750000D02*
X110074113Y-95786000D01*
X110034113Y-99761000D02*
X110034113Y-98830000D01*
X110034113Y-96750000D02*
X110034113Y-95819000D01*
X109994113Y-99727000D02*
X109994113Y-98830000D01*
X109994113Y-96750000D02*
X109994113Y-95853000D01*
X109954113Y-99691000D02*
X109954113Y-98830000D01*
X109954113Y-96750000D02*
X109954113Y-95889000D01*
X109914113Y-99654000D02*
X109914113Y-98830000D01*
X109914113Y-96750000D02*
X109914113Y-95926000D01*
X109874113Y-99616000D02*
X109874113Y-98830000D01*
X109874113Y-96750000D02*
X109874113Y-95964000D01*
X109834113Y-99575000D02*
X109834113Y-98830000D01*
X109834113Y-96750000D02*
X109834113Y-96005000D01*
X109794113Y-99533000D02*
X109794113Y-98830000D01*
X109794113Y-96750000D02*
X109794113Y-96047000D01*
X109754113Y-99489000D02*
X109754113Y-98830000D01*
X109754113Y-96750000D02*
X109754113Y-96091000D01*
X109714113Y-99443000D02*
X109714113Y-98830000D01*
X109714113Y-96750000D02*
X109714113Y-96137000D01*
X109674113Y-99395000D02*
X109674113Y-96185000D01*
X109634113Y-99344000D02*
X109634113Y-96236000D01*
X109594113Y-99290000D02*
X109594113Y-96290000D01*
X109554113Y-99233000D02*
X109554113Y-96347000D01*
X109514113Y-99173000D02*
X109514113Y-96407000D01*
X109474113Y-99109000D02*
X109474113Y-96471000D01*
X109434113Y-99041000D02*
X109434113Y-96539000D01*
X109394113Y-98968000D02*
X109394113Y-96612000D01*
X109354113Y-98888000D02*
X109354113Y-96692000D01*
X109314113Y-98801000D02*
X109314113Y-96779000D01*
X109274113Y-98705000D02*
X109274113Y-96875000D01*
X109234113Y-98595000D02*
X109234113Y-96985000D01*
X109194113Y-98467000D02*
X109194113Y-97113000D01*
X109154113Y-98308000D02*
X109154113Y-97272000D01*
X109114113Y-98074000D02*
X109114113Y-97506000D01*
X114335113Y-97790000D02*
G75*
G03*
X114335113Y-97790000I-2620000J0D01*
G01*
G04 #@! TO.C,R2*
X162560000Y-114705000D02*
X162560000Y-115475000D01*
X163930000Y-115475000D02*
X161190000Y-115475000D01*
X161190000Y-115475000D02*
X161190000Y-122015000D01*
X163930000Y-122015000D02*
X163930000Y-115475000D01*
X161190000Y-122015000D02*
X163930000Y-122015000D01*
X162560000Y-122785000D02*
X162560000Y-122015000D01*
G04 #@! TD*
M02*
