M48
INCH,TZ
T1C0.0315
T2C0.0394
T3C0.0402
T4C0.0423
T5C0.0551
%
G90
G05
T1
X42504Y-40504
X42504Y-41504
X42504Y-42504
X42504Y-43504
X43589Y-38500
X44376Y-38500
X45504Y-40504
X45504Y-41504
X45504Y-42504
X45504Y-43504
X58000Y-44750
X58000Y-48750
X59520Y-45782
X59520Y-46782
X59520Y-47782
X61124Y-34000
X61911Y-34000
X62520Y-45782
X62520Y-46782
X62520Y-47782
X63624Y-34000
X64000Y-44750
X64000Y-48750
X64411Y-34000
T2
X44000Y-46244
X44000Y-47244
X44000Y-48244
X59000Y-29482
X59000Y-35482
T3
X48075Y-29870
X48075Y-30870
X48075Y-31870
X48075Y-32870
X48075Y-33870
X48075Y-34870
X48075Y-35870
X48075Y-36870
X48075Y-37870
X48075Y-38870
X48075Y-39870
X48075Y-40870
X48075Y-41870
X48075Y-42870
X48075Y-43870
X48075Y-44870
X48075Y-45870
X48075Y-46870
X48075Y-47870
X48075Y-48870
X50575Y-48780
X51575Y-48780
X52575Y-48780
X55075Y-29870
X55075Y-30870
X55075Y-31870
X55075Y-32870
X55075Y-33870
X55075Y-34870
X55075Y-35870
X55075Y-36870
X55075Y-37870
X55075Y-38870
X55075Y-39870
X55075Y-40870
X55075Y-41870
X55075Y-42870
X55075Y-43870
X55075Y-44870
X55075Y-45870
X55075Y-46870
X55075Y-47870
X55075Y-48870
T4
X61250Y-31250
X62250Y-31250
X63250Y-31250
X64250Y-31250
T5
X59500Y-38000
X61500Y-38000
X63500Y-38000
T0
M30
